<svg width="64" height="106" viewBox="0 0 64 106" fill="none" xmlns="http://www.w3.org/2000/svg">
<g filter="url(#filter0_d_2831_8087)">
<path d="M45.5702 0C46.0998 0.109717 46.6397 0.181923 47.1562 0.336652C51.0953 1.51259 53.6126 4.11016 54.3637 8.15936C55.096 12.1082 53.7406 15.395 50.6142 17.9241C50.5059 18.0114 50.3929 18.0939 50.3013 18.1633C50.476 18.9988 50.6936 19.809 50.8104 20.6342C51.609 26.2729 47.7868 31.7428 42.2299 32.9459C40.8344 33.2479 39.4314 33.3248 38.0237 33.0575C37.7033 32.9966 37.5221 33.096 37.3306 33.3548C33.9969 37.8588 30.6472 42.3525 27.3153 46.8584C26.9389 47.3676 26.484 47.6058 25.8647 47.6386C24.5934 47.7061 23.324 47.8036 22.0536 47.8984C20.8972 47.9846 20.4433 47.6564 20.1799 46.5133C19.9183 45.3758 19.6577 44.2374 19.4055 43.0971C19.0776 41.6201 19.7754 40.4367 21.2279 39.9941C21.6716 39.859 22.1181 39.7315 22.5954 39.5908C22.5431 39.1679 22.4786 38.7712 22.4478 38.3718C22.3871 37.5691 22.7327 37.0645 23.4959 36.8235C23.9797 36.6707 24.4692 36.5328 24.9736 36.3828C24.9185 35.9927 24.8643 35.641 24.8204 35.2875C24.7158 34.4417 25.0847 33.8715 25.8974 33.6211C26.3682 33.4767 26.8418 33.3398 27.3424 33.1916C27.2854 32.7406 27.2584 32.3205 27.1752 31.9125C27.0669 31.379 27.2163 30.9373 27.5339 30.5172C28.2746 29.5354 28.9958 28.5395 29.7402 27.5605C29.8934 27.3588 29.9224 27.2041 29.8037 26.9762C29.6113 26.6049 29.4581 26.2138 29.2638 25.7778C29.0985 25.8706 28.9397 25.9532 28.7856 26.046C24.2058 28.7992 19.6241 31.5478 15.0527 34.316C14.4689 34.6695 13.9234 34.7286 13.2872 34.5007C12.0318 34.0516 10.7605 33.6465 9.49579 33.2207C8.68033 32.9459 8.33939 32.4405 8.46923 31.5815C8.67193 30.2415 8.8849 28.9024 9.14924 27.5745C9.39678 26.3339 10.5821 25.5359 11.8646 25.6709C12.356 25.7225 12.8482 25.775 13.3713 25.8303C13.4722 25.4515 13.5637 25.0932 13.6637 24.7378C13.8991 23.8939 14.4651 23.5225 15.3366 23.6247C15.8121 23.681 16.2885 23.7232 16.7845 23.7738C16.89 23.3697 16.9731 22.9917 17.089 22.6232C17.3384 21.8242 17.8979 21.4735 18.718 21.5701C19.1944 21.6264 19.6727 21.6705 20.1976 21.7248C20.3032 21.3094 20.4162 20.9099 20.5059 20.5058C20.6245 19.9712 20.9122 19.5868 21.3895 19.3101C22.4506 18.694 23.5015 18.0601 24.542 17.4093C24.6756 17.3259 24.8064 17.1017 24.7989 16.9489C24.4888 10.4765 29.1069 5.32267 35.5241 5.01227C35.8893 4.99445 36.092 4.8763 36.2956 4.56684C37.9882 2.00209 40.3636 0.514824 43.3938 0.0815842C43.4993 0.0665802 43.6011 0.0271947 43.7057 0C44.3269 0 44.949 0 45.5702 0ZM24.0358 38.3333C24.0918 38.7197 24.1385 39.0582 24.1899 39.3958C24.3179 40.2379 23.962 40.8277 23.1577 41.0847C22.6851 41.2357 22.2068 41.3716 21.7323 41.5179C21.0103 41.7402 20.8076 42.0693 20.9701 42.8073C21.1999 43.8567 21.4614 44.8994 21.6772 45.9516C21.7398 46.2564 21.8584 46.3145 22.1452 46.2901C23.2437 46.1973 24.344 46.1129 25.4453 46.0651C25.8096 46.0491 26.0328 45.9197 26.2458 45.6318C29.6347 41.0509 33.0394 36.4813 36.4236 31.8966C36.7888 31.4015 37.1709 31.2383 37.7743 31.3883C39.1521 31.7306 40.5429 31.71 41.9272 31.3837C46.6453 30.2715 49.7829 25.8763 49.2776 21.0515C49.2066 20.3717 49.0179 19.7049 48.9077 19.1554C47.6943 19.4245 46.5977 19.6862 45.4917 19.9009C45.2302 19.9516 45.1031 20.0369 44.9892 20.2713C44.3269 21.6329 42.8015 22.3128 41.3481 21.9152C39.8676 21.5101 38.8999 20.141 39.0166 18.6134C39.1353 17.0567 40.2748 15.8798 41.8516 15.6867C43.291 15.5104 44.7174 16.435 45.1816 17.8454C45.233 18.0029 45.2769 18.1633 45.3507 18.4146C46.3277 18.1464 47.259 17.8904 48.2389 17.6222C48.1268 17.4009 48.0763 17.2902 48.0156 17.1843C45.97 13.6114 41.6694 11.7416 37.6706 12.6859C31.4216 14.161 28.3578 21.0731 31.4645 26.7099C31.7364 27.2032 31.7186 27.5942 31.3758 28.034C30.7444 28.8442 30.1961 29.7257 29.516 30.49C28.8519 31.2364 28.6819 31.9998 28.9154 32.9572C29.1359 33.8612 28.723 34.4435 27.8225 34.7174C27.3658 34.8561 26.9081 34.994 26.4177 35.1412C26.4709 35.552 26.5316 35.9336 26.569 36.3181C26.6475 37.1152 26.3112 37.6338 25.549 37.8823C25.0642 38.0407 24.5719 38.1748 24.0358 38.3343V38.3333ZM44.3288 11.6787C44.3054 11.6318 44.255 11.5193 44.1952 11.4133C41.18 6.0513 33.8203 4.92881 29.3899 9.18338C27.1173 11.3655 26.1197 14.0616 26.4532 17.2152C26.5195 17.8407 26.3523 18.243 25.7862 18.5477C24.953 18.996 24.1852 19.5755 23.3352 19.9844C22.4077 20.4317 21.8911 21.0656 21.7258 22.1056C21.5716 23.0686 21.0439 23.3762 20.051 23.3068C19.5615 23.2721 19.073 23.2215 18.577 23.1774C18.4882 23.5544 18.4163 23.8713 18.3369 24.1874C18.1249 25.0351 17.6167 25.4205 16.7518 25.3671C16.2427 25.3361 15.7355 25.2752 15.19 25.2245C15.09 25.6043 14.9985 25.9625 14.9023 26.3198C14.6902 27.1038 14.212 27.4704 13.4068 27.4235C12.8492 27.3907 12.2952 27.311 11.7385 27.2576C11.2126 27.2069 10.8063 27.446 10.7157 27.9281C10.4812 29.179 10.2795 30.4365 10.06 31.7184C11.2108 32.1048 12.3345 32.4574 13.4386 32.8653C13.8767 33.0275 14.2017 32.9713 14.595 32.7321C19.2187 29.9301 23.8527 27.1432 28.4914 24.3665C28.7697 24.2005 28.8388 24.0373 28.7893 23.7344C28.5698 22.3972 28.6249 21.0647 28.8874 19.7368C29.9794 14.2107 35.369 10.2496 40.9436 10.936C42.0851 11.0767 43.2013 11.4246 44.3297 11.6778L44.3288 11.6787ZM49.6222 16.6282C51.5876 15.3519 53.4296 12.2883 52.8831 8.76421C52.3115 5.07322 49.6353 2.34062 46.0064 1.71421C42.5092 1.1103 39.3323 2.85357 37.8612 5.1323C37.9658 5.167 38.062 5.2092 38.1638 5.23077C41.8469 6.02504 44.5184 8.13685 46.0438 11.5775C46.5369 12.6906 47.0862 13.6611 47.9754 14.4995C48.619 15.1062 49.0786 15.9099 49.6222 16.6282ZM43.2817 19.93C42.3887 19.6796 41.5275 19.4367 40.6662 19.1957C40.7634 19.7837 41.1996 20.2713 41.7843 20.3848C42.3522 20.4955 42.8753 20.4036 43.2817 19.9309V19.93ZM41.2734 17.5556C41.7115 17.9298 43.0519 18.3011 43.5843 18.1961C43.1378 17.2368 42.1337 16.9592 41.2734 17.5556Z" fill="white"/>
<path d="M24.0359 38.3335C24.5721 38.174 25.0644 38.0399 25.5491 37.8815C26.3114 37.633 26.6467 37.1144 26.5692 36.3173C26.5318 35.9328 26.4711 35.5512 26.4178 35.1404C26.9073 34.9923 27.365 34.8553 27.8227 34.7166C28.7232 34.4427 29.136 33.8604 28.9156 32.9564C28.6821 31.999 28.8521 31.2356 29.5162 30.4892C30.1962 29.7249 30.7445 28.8434 31.376 28.0332C31.7188 27.5943 31.7365 27.2024 31.4647 26.7091C28.3579 21.0723 31.4217 14.1602 37.6708 12.6851C41.6696 11.7408 45.9701 13.6106 48.0158 17.1835C48.0765 17.2885 48.1269 17.4001 48.239 17.6214C47.2592 17.8905 46.3279 18.1456 45.3508 18.4138C45.277 18.1634 45.2331 18.0021 45.1818 17.8446C44.7175 16.4333 43.2912 15.5096 41.8517 15.6859C40.2759 15.879 39.1354 17.0559 39.0168 18.6126C38.901 20.1402 39.8677 21.5093 41.3483 21.9144C42.8017 22.312 44.3271 21.6321 44.9893 20.2705C45.1033 20.0352 45.2313 19.9508 45.4919 19.9001C46.5978 19.6854 47.6944 19.4237 48.9078 19.1546C49.0171 19.7041 49.2058 20.3709 49.2777 21.0507C49.7831 25.8755 46.6455 30.2707 41.9274 31.3829C40.5431 31.7092 39.1532 31.7298 37.7745 31.3875C37.171 31.2375 36.789 31.4007 36.4238 31.8958C33.0396 36.4805 29.6348 41.0501 26.246 45.631C26.0321 45.9198 25.8088 46.0483 25.4455 46.0643C24.3442 46.1121 23.2438 46.1965 22.1453 46.2893C21.8586 46.3137 21.7399 46.2565 21.6774 45.9508C21.4616 44.8986 21.2 43.8559 20.9703 42.8065C20.8087 42.0685 21.0104 41.7394 21.7325 41.5171C22.207 41.3708 22.6843 41.2348 23.1579 41.0839C23.9621 40.8269 24.318 40.238 24.19 39.395C24.1387 39.0574 24.092 38.7189 24.0359 38.3325V38.3335ZM35.8633 29.754C35.641 29.5336 35.4598 29.2438 35.201 29.1248C34.8153 28.9466 34.493 29.166 34.2464 29.498C30.8893 34.0226 27.5275 38.5444 24.1714 43.07C23.8332 43.5258 23.8753 43.975 24.2536 44.2694C24.6459 44.5751 25.0952 44.4879 25.4548 44.005C28.8175 39.4841 32.1765 34.9604 35.5317 30.4339C35.656 30.266 35.7204 30.0531 35.8633 29.754Z" fill="#FF0000" fill-opacity="0.7"/>
<path d="M44.3293 11.679C43.2009 11.4258 42.0847 11.0779 40.9432 10.9372C35.3686 10.2508 29.9789 14.2118 28.887 19.738C28.6245 21.0668 28.5694 22.3984 28.7889 23.7356C28.8384 24.0394 28.7684 24.2017 28.4909 24.3676C23.8523 27.1443 19.2183 29.9304 14.5946 32.7333C14.2013 32.9715 13.8753 33.0278 13.4382 32.8665C12.3341 32.4585 11.2104 32.106 10.0596 31.7196C10.2791 30.4377 10.4808 29.1802 10.7153 27.9292C10.805 27.4481 11.2122 27.2081 11.7381 27.2587C12.2948 27.3122 12.8487 27.3928 13.4064 27.4247C14.2116 27.4716 14.6898 27.1049 14.9019 26.321C14.9981 25.9637 15.0896 25.6064 15.1896 25.2257C15.7351 25.2763 16.2423 25.3373 16.7514 25.3682C17.6173 25.4207 18.1254 25.0363 18.3365 24.1885C18.415 23.8725 18.4869 23.5546 18.5766 23.1786C19.0735 23.2227 19.562 23.2733 20.0505 23.308C21.0435 23.3774 21.5712 23.0698 21.7254 22.1067C21.8916 21.0677 22.4072 20.4328 23.3348 19.9855C24.1848 19.5757 24.9517 18.9972 25.7858 18.5489C26.3519 18.2441 26.5191 17.8418 26.4528 17.2164C26.1193 14.0618 27.1169 11.3667 29.3895 9.18455C33.8208 4.92998 41.1796 6.05246 44.1948 11.4145C44.2546 11.5205 44.305 11.6321 44.3284 11.6799L44.3293 11.679ZM13.7333 31.2742C14.0388 31.1344 14.2574 31.0594 14.4516 30.9422C16.7822 29.5459 19.109 28.144 21.4367 26.7439C23.2059 25.6796 24.9807 24.6236 26.7386 23.5415C26.9693 23.3989 27.2346 23.1354 27.2682 22.8982C27.3037 22.6469 27.1459 22.2896 26.9534 22.1039C26.6639 21.8254 26.2968 21.9529 25.967 22.1517C21.8319 24.6443 17.6948 27.1321 13.5596 29.6237C13.441 29.695 13.27 29.771 13.2392 29.8779C13.1598 30.1564 13.0486 30.4855 13.1327 30.7331C13.2084 30.9563 13.525 31.0969 13.7343 31.2732L13.7333 31.2742Z" fill="#FF0000" fill-opacity="0.7"/>
<path d="M35.8629 29.7538C35.72 30.052 35.6556 30.2658 35.5313 30.4337C32.177 34.9611 28.8171 39.4839 25.4544 44.0048C25.0948 44.4877 24.6455 44.5749 24.2532 44.2692C23.8749 43.9748 23.8328 43.5256 24.171 43.0699C27.5272 38.5443 30.8889 34.0225 34.246 29.4978C34.4926 29.1658 34.8149 28.9464 35.2007 29.1246C35.4594 29.2437 35.6397 29.5334 35.8629 29.7538Z" fill="white"/>
<path d="M13.7331 31.274C13.5239 31.0977 13.2072 30.957 13.1316 30.7338C13.0475 30.4872 13.1586 30.1571 13.238 29.8786C13.2689 29.7717 13.4398 29.6957 13.5584 29.6245C17.6936 27.1329 21.8316 24.645 25.9659 22.1525C26.2966 21.9537 26.6627 21.8252 26.9523 22.1046C27.1447 22.2903 27.3026 22.6476 27.2671 22.8989C27.2334 23.1371 26.9682 23.4006 26.7374 23.5422C24.9795 24.6253 23.2047 25.6803 21.4356 26.7446C19.1078 28.1447 16.781 29.5466 14.4505 30.9429C14.2562 31.0592 14.0376 31.1352 13.7322 31.2749L13.7331 31.274Z" fill="white"/>
</g>
<g filter="url(#filter1_d_2831_8087)">
<path d="M13.34 75.4916V77.9116H3.48V63.7116H13.16V66.1316H6.24V69.5516H12.22V71.7916H6.24V75.4916H13.34ZM24.9131 77.9116H22.2331V72.0316C22.2331 71.1916 22.0865 70.5783 21.7931 70.1916C21.4998 69.805 21.0931 69.6116 20.5731 69.6116C20.2131 69.6116 19.8465 69.705 19.4731 69.8916C19.1131 70.0783 18.7865 70.3383 18.4931 70.6716C18.1998 70.9916 17.9865 71.365 17.8531 71.7916V77.9116H15.1731V67.4316H17.5931V69.3716C17.8598 68.9183 18.1998 68.5383 18.6131 68.2316C19.0265 67.9116 19.4998 67.6716 20.0331 67.5116C20.5798 67.3383 21.1531 67.2516 21.7531 67.2516C22.4065 67.2516 22.9398 67.3716 23.3531 67.6116C23.7798 67.8383 24.0998 68.1516 24.3131 68.5516C24.5398 68.9383 24.6931 69.3783 24.7731 69.8716C24.8665 70.365 24.9131 70.865 24.9131 71.3716V77.9116ZM33.4648 77.3716C33.2382 77.465 32.9648 77.5716 32.6448 77.6916C32.3248 77.8116 31.9782 77.905 31.6048 77.9716C31.2448 78.0516 30.8782 78.0916 30.5048 78.0916C30.0115 78.0916 29.5582 78.005 29.1448 77.8316C28.7315 77.6583 28.3982 77.385 28.1448 77.0116C27.9048 76.625 27.7848 76.125 27.7848 75.5116V69.4916H26.4048V67.4316H27.7848V64.0316H30.4648V67.4316H32.6648V69.4916H30.4648V74.6116C30.4782 74.9716 30.5782 75.2316 30.7648 75.3916C30.9515 75.5516 31.1848 75.6316 31.4648 75.6316C31.7448 75.6316 32.0182 75.585 32.2848 75.4916C32.5515 75.3983 32.7648 75.3183 32.9248 75.2516L33.4648 77.3716ZM41.1006 69.7516C40.2873 69.7516 39.5606 69.9116 38.9206 70.2316C38.2806 70.5383 37.8206 70.985 37.5406 71.5716V77.9116H34.8606V67.4316H37.3206V69.6716C37.694 68.9516 38.1673 68.385 38.7406 67.9716C39.314 67.5583 39.9206 67.3316 40.5606 67.2916C40.7073 67.2916 40.8206 67.2916 40.9006 67.2916C40.9806 67.2916 41.0473 67.2983 41.1006 67.3116V69.7516ZM41.8164 74.8116C41.8164 74.1316 42.0031 73.5383 42.3764 73.0316C42.7631 72.5116 43.2964 72.1116 43.9764 71.8316C44.6564 71.5516 45.4364 71.4116 46.3164 71.4116C46.7564 71.4116 47.2031 71.445 47.6564 71.5116C48.1097 71.5783 48.5031 71.685 48.8364 71.8316V71.2716C48.8364 70.605 48.6364 70.0916 48.2364 69.7316C47.8497 69.3716 47.2697 69.1916 46.4964 69.1916C45.9231 69.1916 45.3764 69.2916 44.8564 69.4916C44.3364 69.6916 43.7897 69.985 43.2164 70.3716L42.3564 68.6116C43.0497 68.1583 43.7564 67.8183 44.4764 67.5916C45.2097 67.365 45.9764 67.2516 46.7764 67.2516C48.2697 67.2516 49.4297 67.625 50.2564 68.3716C51.0964 69.1183 51.5164 70.185 51.5164 71.5716V74.9116C51.5164 75.1916 51.5631 75.3916 51.6564 75.5116C51.7631 75.6316 51.9297 75.705 52.1564 75.7316V77.9116C51.9164 77.9516 51.6964 77.985 51.4964 78.0116C51.3097 78.0383 51.1497 78.0516 51.0164 78.0516C50.4831 78.0516 50.0764 77.9316 49.7964 77.6916C49.5297 77.4516 49.3631 77.1583 49.2964 76.8116L49.2364 76.2716C48.7831 76.8583 48.2164 77.3116 47.5364 77.6316C46.8564 77.9516 46.1631 78.1116 45.4564 78.1116C44.7631 78.1116 44.1364 77.9716 43.5764 77.6916C43.0297 77.3983 42.5964 77.005 42.2764 76.5116C41.9697 76.005 41.8164 75.4383 41.8164 74.8116ZM48.3364 75.3516C48.4831 75.1916 48.6031 75.0316 48.6964 74.8716C48.7897 74.7116 48.8364 74.565 48.8364 74.4316V73.3716C48.5164 73.2383 48.1697 73.1383 47.7964 73.0716C47.4231 72.9916 47.0697 72.9516 46.7364 72.9516C46.0431 72.9516 45.4697 73.105 45.0164 73.4116C44.5764 73.705 44.3564 74.0983 44.3564 74.5916C44.3564 74.8583 44.4297 75.1116 44.5764 75.3516C44.7231 75.5916 44.9364 75.785 45.2164 75.9316C45.4964 76.0783 45.8297 76.1516 46.2164 76.1516C46.6164 76.1516 47.0097 76.0783 47.3964 75.9316C47.7831 75.7716 48.0964 75.5783 48.3364 75.3516ZM60.2608 69.7516C59.4474 69.7516 58.7208 69.9116 58.0808 70.2316C57.4408 70.5383 56.9808 70.985 56.7008 71.5716V77.9116H54.0208V67.4316H56.4808V69.6716C56.8541 68.9516 57.3274 68.385 57.9008 67.9716C58.4741 67.5583 59.0808 67.3316 59.7208 67.2916C59.8674 67.2916 59.9808 67.2916 60.0608 67.2916C60.1408 67.2916 60.2074 67.2983 60.2608 67.3116V69.7516Z" fill="white"/>
</g>
<g filter="url(#filter2_d_2831_8087)">
<path d="M27.25 98.7753L31.5 94.9116L35.75 98.7753" stroke="white" stroke-width="2.31818"/>
</g>
<defs>
<filter id="filter0_d_2831_8087" x="5.35147" y="0" width="52.2971" height="54.0934" filterUnits="userSpaceOnUse" color-interpolation-filters="sRGB">
<feFlood flood-opacity="0" result="BackgroundImageFix"/>
<feColorMatrix in="SourceAlpha" type="matrix" values="0 0 0 0 0 0 0 0 0 0 0 0 0 0 0 0 0 0 127 0" result="hardAlpha"/>
<feOffset dy="3.09091"/>
<feGaussianBlur stdDeviation="1.54545"/>
<feComposite in2="hardAlpha" operator="out"/>
<feColorMatrix type="matrix" values="0 0 0 0 0 0 0 0 0 0 0 0 0 0 0 0 0 0 0.25 0"/>
<feBlend mode="normal" in2="BackgroundImageFix" result="effect1_dropShadow_2831_8087"/>
<feBlend mode="normal" in="SourceGraphic" in2="effect1_dropShadow_2831_8087" result="shape"/>
</filter>
<filter id="filter1_d_2831_8087" x="0.38956" y="63.7114" width="62.9621" height="20.5822" filterUnits="userSpaceOnUse" color-interpolation-filters="sRGB">
<feFlood flood-opacity="0" result="BackgroundImageFix"/>
<feColorMatrix in="SourceAlpha" type="matrix" values="0 0 0 0 0 0 0 0 0 0 0 0 0 0 0 0 0 0 127 0" result="hardAlpha"/>
<feOffset dy="3.09091"/>
<feGaussianBlur stdDeviation="1.54545"/>
<feComposite in2="hardAlpha" operator="out"/>
<feColorMatrix type="matrix" values="0 0 0 0 0 0 0 0 0 0 0 0 0 0 0 0 0 0 0.25 0"/>
<feBlend mode="normal" in2="BackgroundImageFix" result="effect1_dropShadow_2831_8087"/>
<feBlend mode="normal" in="SourceGraphic" in2="effect1_dropShadow_2831_8087" result="shape"/>
</filter>
<filter id="filter2_d_2831_8087" x="23.3798" y="93.3452" width="16.2404" height="12.4694" filterUnits="userSpaceOnUse" color-interpolation-filters="sRGB">
<feFlood flood-opacity="0" result="BackgroundImageFix"/>
<feColorMatrix in="SourceAlpha" type="matrix" values="0 0 0 0 0 0 0 0 0 0 0 0 0 0 0 0 0 0 127 0" result="hardAlpha"/>
<feOffset dy="3.09091"/>
<feGaussianBlur stdDeviation="1.54545"/>
<feComposite in2="hardAlpha" operator="out"/>
<feColorMatrix type="matrix" values="0 0 0 0 0 0 0 0 0 0 0 0 0 0 0 0 0 0 0.25 0"/>
<feBlend mode="normal" in2="BackgroundImageFix" result="effect1_dropShadow_2831_8087"/>
<feBlend mode="normal" in="SourceGraphic" in2="effect1_dropShadow_2831_8087" result="shape"/>
</filter>
</defs>
</svg>
