<svg width="41" height="43" viewBox="0 0 41 43" fill="none" xmlns="http://www.w3.org/2000/svg">
<path d="M33.0086 0C33.4795 0.0984733 33.9596 0.16328 34.4188 0.302153C37.9211 1.35758 40.1594 3.68896 40.8271 7.32321C41.4782 10.8674 40.2731 13.8174 37.4934 16.0873C37.3971 16.1656 37.2966 16.2397 37.2152 16.302C37.3705 17.0519 37.564 17.7791 37.6678 18.5197C38.3779 23.5806 34.9794 28.4899 30.0387 29.5698C28.7979 29.8408 27.5505 29.9098 26.2989 29.6699C26.014 29.6152 25.8529 29.7044 25.6827 29.9367C22.7186 33.9792 19.7403 38.0124 16.7779 42.0565C16.4432 42.5135 16.0387 42.7273 15.4881 42.7568C14.3578 42.8174 13.2291 42.9049 12.0996 42.9899C11.0714 43.0673 10.6678 42.7728 10.4336 41.7468C10.201 40.7259 9.96933 39.7041 9.74509 38.6806C9.45358 37.355 10.074 36.2929 11.3654 35.8956C11.7599 35.7744 12.1569 35.66 12.5813 35.5337C12.5348 35.1541 12.4775 34.7981 12.4501 34.4396C12.3961 33.7191 12.7034 33.2663 13.3819 33.05C13.8121 32.9128 14.2473 32.7891 14.6958 32.6544C14.6468 32.3043 14.5986 31.9887 14.5596 31.6714C14.4666 30.9122 14.7946 30.4005 15.5172 30.1757C15.9357 30.0461 16.3568 29.9233 16.802 29.7903C16.7513 29.3854 16.7272 29.0084 16.6533 28.6423C16.557 28.1634 16.6898 27.7669 16.9722 27.3899C17.6308 26.5087 18.272 25.6148 18.9339 24.7362C19.0701 24.5552 19.0958 24.4163 18.9904 24.2118C18.8193 23.8785 18.6831 23.5275 18.5103 23.1362C18.3633 23.2195 18.2221 23.2936 18.0851 23.3769C14.0131 25.848 9.93943 28.3149 5.87489 30.7994C5.35582 31.1167 4.8708 31.1697 4.30522 30.9652C3.18901 30.5621 2.05868 30.1985 0.934164 29.8164C0.209125 29.5698 -0.0940131 29.1161 0.0214284 28.3452C0.20165 27.1424 0.391007 25.9406 0.626043 24.7488C0.846129 23.6353 1.90005 22.919 3.04035 23.0402C3.4772 23.0865 3.91488 23.1336 4.37997 23.1833C4.46966 22.8433 4.55105 22.5218 4.63992 22.2028C4.84921 21.4453 5.3525 21.112 6.12737 21.2037C6.5501 21.2542 6.97366 21.2921 7.41467 21.3376C7.50851 20.9748 7.58243 20.6356 7.68541 20.3049C7.90716 19.5878 8.40464 19.273 9.13383 19.3597C9.55739 19.4102 9.98262 19.4497 10.4494 19.4986C10.5432 19.1257 10.6437 18.7672 10.7234 18.4044C10.8289 17.9247 11.0847 17.5796 11.5091 17.3313C12.4526 16.7783 13.3869 16.2094 14.3121 15.6253C14.4309 15.5504 14.5471 15.3492 14.5405 15.212C14.2647 9.40294 18.3708 4.77722 24.0764 4.49863C24.4012 4.48264 24.5814 4.37659 24.7624 4.09885C26.2673 1.79693 28.3793 0.462067 31.0735 0.0732237C31.1674 0.0597573 31.2579 0.0244079 31.3509 0C31.9032 0 32.4563 0 33.0086 0ZM13.8619 34.4051C13.9118 34.7518 13.9533 35.0556 13.999 35.3586C14.1128 36.1144 13.7963 36.6438 13.0813 36.8745C12.661 37.01 12.2358 37.132 11.8139 37.2633C11.1719 37.4628 10.9917 37.7582 11.1362 38.4206C11.3405 39.3624 11.5731 40.2983 11.7649 41.2426C11.8205 41.5162 11.926 41.5684 12.181 41.5465C13.1577 41.4631 14.136 41.3874 15.1152 41.3445C15.4391 41.3302 15.6376 41.214 15.8269 40.9556C18.8401 36.8442 21.8673 32.7428 24.8762 28.628C25.201 28.1836 25.5406 28.0371 26.0772 28.1718C27.3022 28.479 28.5388 28.4605 29.7696 28.1676C33.9645 27.1694 36.7542 23.2245 36.3049 18.8942C36.2418 18.284 36.0741 17.6856 35.9761 17.1924C34.8972 17.434 33.9222 17.6688 32.9389 17.8615C32.7063 17.907 32.5934 17.9836 32.492 18.194C31.9032 19.4161 30.547 20.0263 29.2547 19.6694C27.9383 19.3058 27.0779 18.077 27.1817 16.706C27.2872 15.3088 28.3004 14.2525 29.7023 14.0792C30.9822 13.9209 32.2504 14.7508 32.6631 16.0166C32.7088 16.158 32.7478 16.302 32.8135 16.5275C33.6822 16.2868 34.5102 16.057 35.3814 15.8163C35.2817 15.6177 35.2369 15.5184 35.1829 15.4233C33.3641 12.2166 29.5404 10.5383 25.985 11.3859C20.4288 12.7098 17.7047 18.9136 20.467 23.9728C20.7087 24.4155 20.6929 24.7665 20.3881 25.1612C19.8267 25.8884 19.3392 26.6795 18.7346 27.3655C18.1441 28.0354 17.9929 28.7205 18.2006 29.5799C18.3966 30.3912 18.0295 30.9139 17.2289 31.1596C16.8227 31.2842 16.4158 31.4079 15.9798 31.5401C16.0271 31.9087 16.0811 32.2513 16.1143 32.5963C16.1841 33.3117 15.8851 33.7772 15.2074 34.0002C14.7763 34.1425 14.3387 34.2628 13.8619 34.4059V34.4051ZM31.9049 10.4819C31.8841 10.4399 31.8393 10.3389 31.7861 10.2437C29.1052 5.43118 22.5616 4.42372 18.6225 8.2423C16.6018 10.2008 15.7148 12.6206 16.0113 15.451C16.0703 16.0124 15.9216 16.3735 15.4183 16.647C14.6775 17.0493 13.9948 17.5695 13.2391 17.9364C12.4144 18.3379 11.9551 18.9069 11.8081 19.8403C11.6711 20.7046 11.2018 20.9807 10.319 20.9184C9.88379 20.8873 9.44943 20.8418 9.00842 20.8023C8.92952 21.1406 8.86558 21.4251 8.79498 21.7087C8.60645 22.4696 8.15466 22.8155 7.3856 22.7675C6.93297 22.7398 6.482 22.685 5.99698 22.6396C5.90811 22.9805 5.82672 23.302 5.74118 23.6226C5.55265 24.3263 5.12743 24.6554 4.41153 24.6133C3.91571 24.5838 3.42321 24.5123 2.92823 24.4643C2.46065 24.4188 2.09938 24.6335 2.01882 25.0661C1.81036 26.1888 1.63097 27.3175 1.43579 28.468C2.45899 28.8148 3.4581 29.1313 4.43976 29.4974C4.82928 29.643 5.11829 29.5925 5.46794 29.3779C9.57899 26.863 13.6992 24.3616 17.8235 21.8695C18.071 21.7205 18.1325 21.5741 18.0884 21.3022C17.8933 20.102 17.9423 18.906 18.1756 17.7143C19.1465 12.7544 23.9386 9.19926 28.8951 9.81535C29.91 9.94159 30.9024 10.2538 31.9057 10.4811L31.9049 10.4819ZM36.6114 14.9242C38.3588 13.7787 39.9966 11.029 39.5107 7.86608C39.0024 4.55334 36.623 2.10076 33.3965 1.53854C30.287 0.996516 27.4625 2.56115 26.1544 4.60636C26.2474 4.6375 26.333 4.67538 26.4235 4.69473C29.6982 5.40761 32.0735 7.30301 33.4297 10.391C33.8682 11.3901 34.3566 12.2612 35.1472 13.0136C35.7194 13.5582 36.128 14.2795 36.6114 14.9242ZM30.9739 17.8876C30.1799 17.6629 29.4142 17.4449 28.6484 17.2286C28.7348 17.7563 29.1227 18.194 29.6426 18.2958C30.1475 18.3951 30.6126 18.3127 30.9739 17.8885V17.8876ZM29.1883 15.7566C29.5778 16.0924 30.7696 16.4257 31.243 16.3314C30.846 15.4704 29.9532 15.2213 29.1883 15.7566Z" fill="#353131"/>
<path d="M13.8621 34.4051C14.3388 34.262 14.7765 34.1416 15.2075 33.9994C15.8852 33.7763 16.1834 33.3109 16.1144 32.5955C16.0812 32.2504 16.0272 31.9079 15.9799 31.5392C16.4151 31.4063 16.822 31.2834 17.229 31.1588C18.0296 30.913 18.3967 30.3904 18.2007 29.579C17.9931 28.7197 18.1442 28.0346 18.7347 27.3646C19.3393 26.6787 19.8268 25.8875 20.3883 25.1604C20.6931 24.7665 20.7088 24.4147 20.4672 23.9719C17.7049 18.9128 20.429 12.709 25.9851 11.385C29.5405 10.5375 33.3642 12.2157 35.183 15.4224C35.237 15.5167 35.2819 15.6169 35.3815 15.8155C34.5103 16.057 33.6823 16.286 32.8136 16.5267C32.748 16.302 32.7089 16.1572 32.6633 16.0158C32.2505 14.7491 30.9823 13.9201 29.7025 14.0783C28.3014 14.2517 27.2873 15.308 27.1819 16.7051C27.0789 18.0762 27.9385 19.305 29.2548 19.6686C30.5471 20.0254 31.9033 19.4152 32.4922 18.1932C32.5935 17.9819 32.7073 17.9062 32.939 17.8607C33.9223 17.668 34.8973 17.4331 35.9762 17.1916C36.0734 17.6848 36.2411 18.2832 36.3051 18.8934C36.7544 23.2237 33.9647 27.1685 29.7698 28.1667C28.5389 28.4596 27.3031 28.4781 26.0773 28.1709C25.5408 28.0363 25.2011 28.1827 24.8764 28.6271C21.8674 32.742 18.8402 36.8433 15.8271 40.9548C15.6369 41.214 15.4384 41.3293 15.1153 41.3436C14.1362 41.3866 13.1578 41.4623 12.1811 41.5456C11.9262 41.5675 11.8207 41.5162 11.765 41.2418C11.5732 40.2975 11.3406 39.3615 11.1363 38.4197C10.9927 37.7574 11.172 37.4619 11.814 37.2625C12.2359 37.1312 12.6603 37.0091 13.0814 36.8736C13.7965 36.643 14.1129 36.1145 13.9991 35.3578C13.9534 35.0548 13.9119 34.751 13.8621 34.4042V34.4051ZM24.3781 26.7048C24.1804 26.507 24.0193 26.2469 23.7892 26.14C23.4462 25.9801 23.1597 26.1771 22.9404 26.475C19.9556 30.536 16.9665 34.5944 13.9825 38.6562C13.6819 39.0653 13.7192 39.4684 14.0556 39.7327C14.4044 40.0071 14.8039 39.9288 15.1236 39.4954C18.1135 35.4378 21.1 31.3776 24.0832 27.315C24.1937 27.1643 24.251 26.9733 24.3781 26.7048Z" fill="white"/>
<path d="M31.905 10.4819C30.9017 10.2547 29.9092 9.94244 28.8944 9.81619C23.9378 9.2001 19.1458 12.7552 18.1749 17.7151C17.9415 18.9077 17.8925 20.1029 18.0877 21.3031C18.1317 21.5758 18.0694 21.7214 17.8228 21.8703C13.6984 24.3625 9.57825 26.863 5.46721 29.3787C5.11756 29.5925 4.82771 29.643 4.43903 29.4982C3.45736 29.1321 2.45825 28.8156 1.43506 28.4689C1.63023 27.3183 1.80962 26.1897 2.01808 25.0669C2.09781 24.6352 2.45991 24.4197 2.92749 24.4651C3.42248 24.5131 3.91497 24.5855 4.41079 24.6141C5.12669 24.6562 5.55192 24.3271 5.74045 23.6235C5.82599 23.3028 5.90738 22.9822 5.99624 22.6404C6.48126 22.6859 6.93223 22.7406 7.38486 22.7684C8.15475 22.8155 8.60655 22.4704 8.79425 21.7096C8.86401 21.4259 8.92796 21.1406 9.00769 20.8031C9.44952 20.8427 9.88388 20.8881 10.3182 20.9193C11.2011 20.9815 11.6703 20.7055 11.8074 19.8411C11.9552 18.9086 12.4136 18.3388 13.2383 17.9373C13.9941 17.5695 14.6759 17.0502 15.4176 16.6479C15.9209 16.3743 16.0696 16.0133 16.0106 15.4519C15.7141 12.6206 16.6011 10.2017 18.6217 8.24314C22.5617 4.42457 29.1045 5.43202 31.7854 10.2446C31.8385 10.3397 31.8834 10.4399 31.9041 10.4828L31.905 10.4819ZM4.70147 28.0691C4.97305 27.9437 5.16739 27.8764 5.34014 27.7712C7.41227 26.5179 9.48108 25.2597 11.5507 24.0031C13.1237 23.0478 14.7017 22.1001 16.2647 21.1288C16.4699 21.0009 16.7057 20.7644 16.7356 20.5515C16.7672 20.3259 16.6268 20.0052 16.4557 19.8386C16.1983 19.5886 15.8719 19.7031 15.5787 19.8815C11.902 22.1186 8.22368 24.3515 4.547 26.5878C4.44152 26.6518 4.28954 26.7199 4.26213 26.8159C4.19154 27.0658 4.0927 27.3613 4.16745 27.5835C4.23472 27.7838 4.51627 27.91 4.7023 28.0683L4.70147 28.0691Z" fill="white"/>
<path d="M24.378 26.7048C24.2509 26.9724 24.1936 27.1643 24.0832 27.315C21.1008 31.3785 18.1134 35.4377 15.1236 39.4954C14.8038 39.9288 14.4043 40.0071 14.0555 39.7327C13.7192 39.4684 13.6818 39.0653 13.9824 38.6562C16.9665 34.5944 19.9555 30.536 22.9404 26.475C23.1596 26.177 23.4462 25.9801 23.7892 26.14C24.0192 26.2469 24.1795 26.507 24.378 26.7048Z" fill="#353131"/>
<path d="M4.70117 28.0691C4.51513 27.9109 4.23359 27.7846 4.16632 27.5843C4.09157 27.363 4.1904 27.0667 4.261 26.8167C4.2884 26.7208 4.44039 26.6526 4.54586 26.5886C8.22255 24.3524 11.9017 22.1195 15.5776 19.8824C15.8716 19.7039 16.1971 19.5886 16.4546 19.8394C16.6257 20.0061 16.7661 20.3267 16.7345 20.5523C16.7046 20.7661 16.4687 21.0026 16.2636 21.1297C14.7006 22.1018 13.1226 23.0486 11.5496 24.0039C9.47995 25.2605 7.41114 26.5188 5.339 27.772C5.16626 27.8764 4.97192 27.9445 4.70034 28.0699L4.70117 28.0691Z" fill="#353131"/>
</svg>
