<svg width="33" height="34" viewBox="0 0 33 34" fill="none" xmlns="http://www.w3.org/2000/svg">
<path d="M16.5368 8.23438C11.8225 8.23438 8.06585 12.1808 8.06585 16.9621C8.06585 21.8192 11.8225 25.6897 16.5368 25.6897C21.1775 25.6897 25.0078 21.8192 25.0078 16.9621C25.0078 12.1808 21.1775 8.23438 16.5368 8.23438ZM16.5368 22.654C13.5167 22.654 11.0123 20.1496 11.0123 16.9621C11.0123 13.8504 13.4431 11.346 16.5368 11.346C19.5569 11.346 21.9877 13.8504 21.9877 16.9621C21.9877 20.1496 19.5569 22.654 16.5368 22.654ZM27.2913 7.9308C27.2913 6.79241 26.4074 5.8817 25.3025 5.8817C24.1975 5.8817 23.3136 6.79241 23.3136 7.9308C23.3136 9.0692 24.1975 9.97991 25.3025 9.97991C26.4074 9.97991 27.2913 9.0692 27.2913 7.9308ZM32.8895 9.97991C32.7422 7.24777 32.1529 4.8192 30.2377 2.84598C28.3225 0.872768 25.9654 0.265625 23.3136 0.113839C20.5882 -0.0379464 12.4118 -0.0379464 9.68638 0.113839C7.0346 0.265625 4.75112 0.872768 2.76228 2.84598C0.847098 4.8192 0.257812 7.24777 0.110491 9.97991C-0.0368304 12.7879 -0.0368304 21.2121 0.110491 24.0201C0.257812 26.7522 0.847098 29.1049 2.76228 31.154C4.75112 33.1272 7.0346 33.7344 9.68638 33.8862C12.4118 34.0379 20.5882 34.0379 23.3136 33.8862C25.9654 33.7344 28.3225 33.1272 30.2377 31.154C32.1529 29.1049 32.7422 26.7522 32.8895 24.0201C33.0368 21.2121 33.0368 12.7879 32.8895 9.97991ZM29.3538 26.9799C28.8382 28.4978 27.6596 29.6362 26.26 30.2433C24.0502 31.154 18.894 30.9263 16.5368 30.9263C14.106 30.9263 8.94978 31.154 6.81362 30.2433C5.3404 29.6362 4.23549 28.4978 3.64621 26.9799C2.76228 24.779 2.98326 19.4665 2.98326 16.9621C2.98326 14.5335 2.76228 9.22098 3.64621 6.9442C4.23549 5.50223 5.3404 4.36384 6.81362 3.7567C8.94978 2.84598 14.106 3.07366 16.5368 3.07366C18.894 3.07366 24.0502 2.84598 26.26 3.7567C27.6596 4.28795 28.7645 5.50223 29.3538 6.9442C30.2377 9.22098 30.0167 14.5335 30.0167 16.9621C30.0167 19.4665 30.2377 24.779 29.3538 26.9799Z" fill="white"/>
</svg>
