<svg width="27" height="28" viewBox="0 0 27 28" fill="none" xmlns="http://www.w3.org/2000/svg">
<path d="M13.1974 7.09988C9.43514 7.09988 6.43706 10.2494 6.43706 14.0651C6.43706 17.9414 9.43514 21.0304 13.1974 21.0304C16.901 21.0304 19.9578 17.9414 19.9578 14.0651C19.9578 10.2494 16.901 7.09988 13.1974 7.09988ZM13.1974 18.6077C10.7872 18.6077 8.7885 16.6089 8.7885 14.0651C8.7885 11.5819 10.7284 9.58314 13.1974 9.58314C15.6077 9.58314 17.5476 11.5819 17.5476 14.0651C17.5476 16.6089 15.6077 18.6077 13.1974 18.6077ZM21.7802 6.85761C21.7802 5.9491 21.0748 5.22229 20.193 5.22229C19.3112 5.22229 18.6058 5.9491 18.6058 6.85761C18.6058 7.76612 19.3112 8.49293 20.193 8.49293C21.0748 8.49293 21.7802 7.76612 21.7802 6.85761ZM26.2479 8.49293C26.1304 6.3125 25.6601 4.37435 24.1316 2.7996C22.6032 1.22484 20.722 0.740306 18.6058 0.619171C16.4307 0.498037 9.90543 0.498037 7.73035 0.619171C5.61406 0.740306 3.79169 1.22484 2.20447 2.7996C0.676038 4.37435 0.205751 6.3125 0.0881789 8.49293C-0.029393 10.7339 -0.029393 17.4569 0.0881789 19.6979C0.205751 21.8783 0.676038 23.7559 2.20447 25.3912C3.79169 26.966 5.61406 27.4505 7.73035 27.5716C9.90543 27.6928 16.4307 27.6928 18.6058 27.5716C20.722 27.4505 22.6032 26.966 24.1316 25.3912C25.6601 23.7559 26.1304 21.8783 26.2479 19.6979C26.3655 17.4569 26.3655 10.7339 26.2479 8.49293ZM23.4262 22.06C23.0147 23.2714 22.0741 24.1799 20.9572 24.6644C19.1936 25.3912 15.0786 25.2095 13.1974 25.2095C11.2575 25.2095 7.14249 25.3912 5.4377 24.6644C4.26198 24.1799 3.38019 23.2714 2.9099 22.06C2.20447 20.3036 2.38083 16.0638 2.38083 14.0651C2.38083 12.127 2.20447 7.88725 2.9099 6.07023C3.38019 4.91945 4.26198 4.01094 5.4377 3.5264C7.14249 2.7996 11.2575 2.9813 13.1974 2.9813C15.0786 2.9813 19.1936 2.7996 20.9572 3.5264C22.0741 3.95037 22.9559 4.91945 23.4262 6.07023C24.1316 7.88725 23.9553 12.127 23.9553 14.0651C23.9553 16.0638 24.1316 20.3036 23.4262 22.06Z" fill="#FF0000"/>
</svg>
