<svg width="43" height="43" viewBox="0 0 43 43" fill="none" xmlns="http://www.w3.org/2000/svg">
<path d="M18.12 0C19.2345 0.331731 20.382 0.582701 21.4573 1.01256C23.2233 1.71944 24.7833 2.79974 26.2748 3.97296C26.4893 4.14143 26.7013 4.31251 26.974 4.52874C27.3058 4.17443 27.6385 3.83314 27.9486 3.47276C28.0129 3.39807 28.0285 3.24002 28.0025 3.13668C27.7323 2.06681 28.0633 1.15672 28.9172 0.659989C29.7719 0.16326 30.7561 0.315231 31.5248 1.07769C32.4794 2.02339 33.4419 2.96213 34.3713 3.93127C35.5057 5.11404 34.9811 7.0202 33.4132 7.39535C33.0527 7.48132 32.6479 7.37711 32.264 7.37016C32.1363 7.36756 31.9678 7.34585 31.8861 7.41358C31.5222 7.71839 31.1826 8.05273 30.902 8.31325C31.8062 9.66276 32.7053 10.9011 33.4931 12.2063C34.4373 13.7721 35.1583 15.4489 35.3034 17.3004C35.3581 17.9942 35.2599 18.6994 35.2287 19.4575C36.5698 19.8292 37.4706 20.728 37.4367 22.2868C37.4081 23.6041 36.6324 24.4326 35.398 24.8772V29.1116C35.8914 29.1116 36.3952 29.1498 36.8877 29.0916C37.071 29.0699 37.263 28.8502 37.3889 28.6756C37.5192 28.4959 37.4767 28.3257 37.2361 28.1919C36.291 27.6692 35.8923 26.7921 36.1364 25.8455C36.3865 24.8738 37.1866 24.2763 38.2532 24.2711C39.1054 24.2667 39.9584 24.2676 40.8105 24.2711C41.8789 24.2754 42.6807 24.872 42.9317 25.8394C43.1775 26.7869 42.7641 27.6605 41.852 28.211C41.7243 28.2875 41.6235 28.5237 41.627 28.6826C41.6531 29.7542 41.4411 30.7503 40.7766 31.6161C39.961 32.6781 38.8787 33.2365 37.5418 33.2791C36.8374 33.3016 36.1312 33.2834 35.3737 33.2834V33.7775C35.3737 35.1791 35.3772 36.5799 35.3737 37.9815C35.3642 40.882 33.2673 42.9913 30.3747 42.9939C24.4654 42.9991 18.5561 42.9991 12.6476 42.9939C9.74814 42.9913 7.6417 40.888 7.63214 37.998C7.6278 36.5825 7.63214 35.1661 7.63214 33.7506C7.63214 33.6099 7.63214 33.4692 7.63214 33.286C6.98849 33.286 6.38652 33.286 5.78369 33.286C3.17605 33.2825 1.38753 31.5119 1.39796 28.9162C1.39969 28.5089 1.28503 28.2883 0.934974 28.0261C0.53714 27.7273 0.306083 27.208 0.00292969 26.7843C0.00292969 26.4951 0.00292969 26.2059 0.00292969 25.9176C0.323456 25.0518 0.858534 24.41 1.82793 24.2919C2.2553 24.2398 2.69309 24.2728 3.12654 24.2711C3.71895 24.2693 4.31136 24.2607 4.9029 24.2746C5.84189 24.2963 6.62453 24.9224 6.8634 25.8229C7.0988 26.7104 6.73398 27.6075 5.94873 28.1086C5.77674 28.218 5.46143 28.2319 5.56827 28.5775C5.67511 28.9197 5.90096 29.1142 6.26318 29.1211C6.69576 29.1289 7.12921 29.1229 7.58958 29.1229C7.60435 29.0195 7.62954 28.9257 7.62954 28.8311C7.63214 27.6179 7.62433 26.4048 7.63736 25.1916C7.63996 24.9484 7.56092 24.8503 7.3342 24.7591C6.06078 24.2468 5.3485 22.9789 5.59607 21.711C5.86534 20.3303 6.9633 19.4167 8.39046 19.4167C16.117 19.4132 23.8443 19.415 31.5708 19.415C31.7428 19.415 31.9139 19.415 32.1893 19.415C32.0208 19.2378 31.9131 19.1171 31.7984 19.0033C26.2114 13.4203 20.6252 7.83476 15.0381 2.24917C14.3606 1.57182 14.3719 1.13588 15.1945 0.649568C15.6905 0.356046 16.2751 0.211891 16.8197 0.000868406C17.2531 0.000868406 17.6866 0.000868406 18.12 0.000868406V0ZM9.01675 24.9884C9.01675 25.1499 9.01675 25.2906 9.01675 25.4313C9.01675 29.5918 9.01588 33.7515 9.01675 37.912C9.01675 40.1421 10.4778 41.6105 12.6989 41.6114C18.5639 41.6132 24.4289 41.6132 30.2948 41.6114C32.5185 41.6114 33.9839 40.1447 33.9848 37.9198C33.9865 33.7593 33.9848 29.5996 33.9848 25.4391V24.9884H9.01675ZM21.5233 20.8061C18.4753 20.8061 15.4264 20.8061 12.3784 20.8061C11.0207 20.8061 9.66214 20.7966 8.30447 20.8105C7.57742 20.8183 7.00065 21.3723 6.94158 22.0723C6.88251 22.7705 7.37069 23.4218 8.06733 23.5529C8.24974 23.5876 8.44084 23.579 8.62847 23.579C17.2106 23.5798 25.7918 23.5798 34.3739 23.579C34.5042 23.579 34.6345 23.5868 34.7639 23.5746C35.3494 23.5173 35.7663 23.2168 35.9757 22.668C36.3336 21.7319 35.6369 20.8079 34.5702 20.807C30.2218 20.8035 25.8726 20.8053 21.5242 20.8053L21.5233 20.8061ZM33.8206 18.9365C34.0708 18.3581 34.0421 17.7242 33.9448 17.0963C33.7485 15.8258 33.2438 14.6596 32.6332 13.5419C30.3686 9.39876 27.2042 6.09361 23.2372 3.55352C21.7249 2.58524 20.1396 1.75418 18.345 1.432C17.6927 1.31477 17.0308 1.28524 16.4192 1.54316C22.2191 7.34064 28.0068 13.126 33.8206 18.9373V18.9365ZM7.60956 30.4967C5.96523 30.6131 4.42688 30.5644 4.13329 28.462H2.77474C2.77474 28.7034 2.77127 28.9179 2.77474 29.1316C2.79906 30.5384 3.78236 31.7081 5.18086 31.8636C5.97479 31.9521 6.78609 31.8792 7.60956 31.8792V30.4967ZM35.392 31.8974C36.1633 31.8974 36.8851 31.9235 37.6052 31.8922C39.3191 31.8184 40.5508 30.1537 40.166 28.4499H38.8839C38.5494 29.9887 37.8954 30.5149 36.3301 30.5149C36.0182 30.5149 35.7073 30.5149 35.392 30.5149V31.8974ZM29.9204 1.67255C29.7094 1.85231 29.4653 1.97823 29.3489 2.17709C29.1812 2.4628 29.2829 2.76153 29.5226 3.00034C30.4625 3.93822 31.3962 4.88131 32.3404 5.81485C32.681 6.15179 33.0883 6.17176 33.3776 5.89387C33.6799 5.60383 33.6608 5.18352 33.3072 4.8266C32.383 3.89393 31.4562 2.963 30.5189 2.04336C30.373 1.90007 30.1654 1.82105 29.9204 1.67168V1.67255ZM3.46791 25.6605C3.02056 25.6605 2.57235 25.651 2.125 25.6631C1.682 25.6753 1.39101 25.9593 1.39101 26.3527C1.39101 26.7452 1.682 27.037 2.12413 27.0422C3.0197 27.0535 3.91526 27.0535 4.81082 27.0422C5.25295 27.037 5.54482 26.7452 5.54482 26.3527C5.54482 25.9593 5.25382 25.6753 4.81082 25.6631C4.36347 25.651 3.91526 25.6605 3.46791 25.6605ZM39.5032 27.0465C39.9366 27.0465 40.3701 27.0465 40.8035 27.0465C40.8183 27.0465 40.8322 27.0465 40.847 27.0465C41.316 27.0274 41.6192 26.7469 41.6114 26.3405C41.6036 25.9488 41.3108 25.6692 40.8644 25.664C39.9836 25.6545 39.1019 25.6545 38.2211 25.664C37.7512 25.6683 37.4489 25.9593 37.4567 26.3674C37.4645 26.7582 37.7572 27.0335 38.2037 27.0448C38.6372 27.0561 39.0706 27.0474 39.5041 27.0474L39.5032 27.0465ZM29.9413 7.31545C30.2661 7.00543 30.5884 6.69802 30.8829 6.41665C30.2349 5.76535 29.5973 5.12533 28.9919 4.51658C28.6809 4.80923 28.3499 5.12012 28.039 5.41191C28.68 6.05279 29.3124 6.68499 29.9421 7.31545H29.9413Z" fill="#353131"/>
<path d="M12.0338 7.259C12.3022 7.52213 12.6088 7.8226 12.9615 8.16822C12.5472 8.57116 12.1189 8.97584 11.7046 9.39441C10.8811 10.2272 10.8785 11.2823 11.715 12.1117C12.3456 12.7369 12.9459 13.3656 13.1135 14.2905C13.2716 15.1589 13.1526 15.9865 12.6236 16.6777C12.1198 17.336 11.5039 17.9083 10.9237 18.5327C10.5754 18.1731 10.2766 17.864 9.92215 17.4992C10.2705 17.1606 10.6336 16.8167 10.9871 16.4641C12.0755 15.3795 12.0833 14.4242 10.9697 13.3474C10.2349 12.637 9.72063 11.8407 9.71108 10.7865C9.705 10.0396 9.89783 9.3371 10.4016 8.7874C10.9063 8.2377 11.49 7.76181 12.0329 7.259H12.0338Z" fill="#353131"/>
<path d="M17.0792 18.4319C16.8091 18.1653 16.5024 17.8631 16.1446 17.5105C16.5676 17.1006 16.988 16.7081 17.3919 16.3C18.2571 15.4281 18.2623 14.3825 17.3876 13.5193C16.7535 12.8941 16.1645 12.2575 16.0082 11.3301C15.8588 10.4443 15.9978 9.61151 16.5511 8.91418C17.0488 8.28633 17.6438 7.73402 18.2136 7.12961C18.5481 7.48479 18.8425 7.79741 19.2152 8.19167C18.8469 8.53729 18.4438 8.89942 18.0599 9.28065C17.0862 10.2463 17.0931 11.2406 18.0547 12.2176C18.3474 12.5146 18.6523 12.8116 18.886 13.1537C19.6669 14.2974 19.613 15.8345 18.707 16.8974C18.2336 17.4524 17.6429 17.9074 17.0801 18.431L17.0792 18.4319Z" fill="#353131"/>
<path d="M9.0166 24.9884H33.9855V25.4391C33.9855 29.5996 33.9872 33.7593 33.9855 37.9198C33.9846 40.1447 32.5192 41.6105 30.2955 41.6114C24.4305 41.6131 18.5655 41.6131 12.6996 41.6114C10.4785 41.6114 9.01834 40.1421 9.01747 37.912C9.01573 33.7515 9.01747 29.5918 9.01747 25.4313C9.01747 25.2906 9.0166 25.1499 9.0166 24.9884Z" fill="white"/>
<path d="M21.5229 20.8053C25.8713 20.8053 30.2205 20.8035 34.5689 20.807C35.6347 20.8079 36.3322 21.7319 35.9744 22.668C35.7641 23.2168 35.3481 23.5173 34.7626 23.5746C34.6341 23.5877 34.5029 23.579 34.3726 23.579C25.7905 23.579 17.2093 23.579 8.62714 23.579C8.43952 23.579 8.24842 23.5877 8.06601 23.5529C7.36936 23.4218 6.88206 22.7705 6.94026 22.0723C6.99932 21.3724 7.5761 20.8183 8.30314 20.8105C9.66082 20.7966 11.0194 20.8061 12.377 20.8061C15.4251 20.8061 18.474 20.8061 21.522 20.8061L21.5229 20.8053Z" fill="white"/>
<path d="M33.8194 18.9356C28.0065 13.1251 22.2188 7.33891 16.4189 1.54143C17.0296 1.28438 17.6924 1.31391 18.3447 1.43028C20.1393 1.75245 21.7246 2.58352 23.2369 3.55179C27.203 6.09188 30.3675 9.39703 32.6329 13.5402C33.2435 14.6578 33.7482 15.8241 33.9445 17.0946C34.0418 17.7224 34.0705 18.3572 33.8203 18.9347L33.8194 18.9356Z" fill="white"/>
<path d="M7.60882 30.4967V31.8792C6.78623 31.8792 5.97405 31.9513 5.18012 31.8636C3.78162 31.7081 2.79833 30.5384 2.77401 29.1315C2.77053 28.917 2.77401 28.7034 2.77401 28.462H4.13255C4.42615 30.5644 5.9645 30.613 7.60882 30.4967Z" fill="white"/>
<path d="M35.3916 31.8974V30.5149C35.7069 30.5149 36.0188 30.5149 36.3297 30.5149C37.895 30.5149 38.5491 29.9895 38.8835 28.4499H40.1656C40.5504 30.1537 39.3187 31.8175 37.6049 31.8922C36.8848 31.9235 36.1629 31.8974 35.3916 31.8974Z" fill="white"/>
<path d="M29.92 1.67255C30.1649 1.82191 30.3734 1.90181 30.5184 2.04422C31.4557 2.96387 32.3825 3.8948 33.3068 4.82747C33.6603 5.18438 33.6794 5.60469 33.3771 5.89474C33.0879 6.17263 32.6805 6.15265 32.34 5.81571C31.3958 4.88218 30.462 3.93909 29.5221 3.00121C29.2824 2.7624 29.1807 2.46366 29.3484 2.17796C29.4657 1.97823 29.7089 1.85231 29.92 1.67341V1.67255Z" fill="white"/>
<path d="M3.46753 25.6605C3.91488 25.6605 4.36309 25.651 4.81044 25.6632C5.25344 25.6753 5.54443 25.9602 5.54443 26.3527C5.54443 26.7452 5.25257 27.0361 4.81044 27.0422C3.91488 27.0535 3.01931 27.0535 2.12375 27.0422C1.68162 27.037 1.39062 26.7452 1.39062 26.3527C1.39062 25.9602 1.68162 25.6753 2.12462 25.6632C2.57197 25.651 3.02018 25.6605 3.46753 25.6605Z" fill="white"/>
<path d="M39.5026 27.0465C39.0691 27.0465 38.6357 27.0552 38.2022 27.0439C37.7566 27.0326 37.463 26.7573 37.4552 26.3665C37.4474 25.9593 37.7497 25.6683 38.2196 25.6631C39.1004 25.6544 39.9821 25.6536 40.8629 25.6631C41.3085 25.6683 41.6021 25.9488 41.6099 26.3396C41.6177 26.746 41.3146 27.0265 40.8455 27.0456C40.8307 27.0456 40.8168 27.0456 40.8021 27.0456C40.3686 27.0456 39.9352 27.0456 39.5017 27.0456L39.5026 27.0465Z" fill="white"/>
<path d="M29.9422 7.31633C29.3125 6.68673 28.6801 6.05367 28.0391 5.41278C28.35 5.121 28.681 4.81011 28.992 4.51746C29.5983 5.12621 30.235 5.76622 30.883 6.41753C30.5885 6.69889 30.2662 7.00631 29.9414 7.31633H29.9422Z" fill="white"/>
</svg>
