<svg width="40" height="39" viewBox="0 0 40 39" fill="none" xmlns="http://www.w3.org/2000/svg">
<g clip-path="url(#clip0_4_510)" filter="url(#filter0_d_4_510)">
<path d="M26.8323 0.454865H13.5778C11.327 0.454865 9.50244 2.29021 9.50244 4.55423V13.9672C9.50244 16.2312 11.327 18.0665 13.5778 18.0665H26.8323C29.0831 18.0665 30.9077 16.2312 30.9077 13.9672V4.55423C30.9077 2.29021 29.0831 0.454865 26.8323 0.454865Z" fill="white"/>
<path d="M31.1506 12.4988C31.8593 12.4988 32.5055 12.4778 33.1498 12.5033C34.4185 12.5544 35.4698 13.3675 35.8522 14.5608C36.231 15.744 35.8703 17.0138 34.8943 17.7923C34.6161 18.0138 34.288 18.2016 33.9518 18.311C33.6537 18.4076 33.5984 18.5526 33.6002 18.8306C33.612 20.1196 33.5522 21.4113 33.6174 22.6966C33.7289 24.8944 32.0487 26.2007 30.345 26.0667C30.2725 26.0612 30.1982 26.0767 30.0722 26.0858C30.1728 27.0448 30.2734 27.9856 30.3704 28.9272C30.3967 29.1834 30.432 29.4404 30.4311 29.6966C30.4293 30.393 29.9182 30.9418 29.2258 30.9819C28.8352 31.0047 28.441 31.0084 28.0504 30.9801C27.446 30.9363 27.0536 30.6009 26.8669 30.0202C26.4826 28.8251 26.0884 27.6328 25.716 26.4341C25.6317 26.1624 25.5175 26.0567 25.2184 26.0576C21.7358 26.0694 18.254 26.0685 14.7714 26.0585C14.4968 26.0585 14.3817 26.146 14.3011 26.4085C13.9449 27.5653 13.567 28.7148 13.1927 29.8652C12.9172 30.7103 12.5375 30.9856 11.6666 30.9892C11.4256 30.9892 11.1845 30.9929 10.9435 30.9892C10.039 30.9746 9.48986 30.3538 9.5832 29.4532C9.68923 28.4286 9.79617 27.4031 9.90129 26.3785C9.91035 26.2919 9.91035 26.2034 9.91488 26.0858C9.6113 26.0713 9.32583 26.0785 9.04671 26.0421C7.47168 25.8361 6.4132 24.6282 6.39236 22.9874C6.37423 21.6082 6.38058 20.228 6.39417 18.8479C6.39689 18.5489 6.32529 18.4076 6.01627 18.3019C4.66326 17.8379 3.83134 16.4641 4.0289 15.0968C4.24277 13.6164 5.40094 12.5608 6.89622 12.4997C7.42274 12.4778 7.95198 12.476 8.47851 12.4942C8.78028 12.5052 8.86728 12.3949 8.86275 12.1013C8.84825 11.146 8.85369 10.1907 8.85912 9.23534C8.86184 8.68839 9.09928 8.38393 9.51252 8.37208C9.94117 8.35931 10.2085 8.6811 10.2121 9.24263C10.2185 10.228 10.223 11.2144 10.2085 12.1998C10.2049 12.4669 10.2892 12.589 10.542 12.6939C11.7011 13.1743 12.3119 14.0621 12.3581 15.3229C12.3789 15.909 12.3617 16.497 12.3617 17.177C13.316 16.5817 14.3038 16.7075 15.2734 16.7066C18.4389 16.7021 21.6053 16.7021 24.7708 16.7066C25.7277 16.7075 26.7047 16.5872 27.6317 17.1715C27.6317 16.6246 27.6317 16.1569 27.6317 15.6902C27.6327 14.0667 28.2589 13.146 29.794 12.5535C29.794 12.4213 29.794 12.2718 29.794 12.1223C29.794 9.40763 29.7958 6.69386 29.794 3.97919C29.7931 2.34838 28.8289 1.36934 27.214 1.36843C22.4046 1.3657 17.5961 1.36478 12.7867 1.36843C11.189 1.36934 10.2275 2.33835 10.2167 3.94364C10.2121 4.62641 10.2167 5.30827 10.2148 5.99104C10.2148 6.11228 10.2176 6.23443 10.2022 6.35385C10.1478 6.76406 9.89042 6.99742 9.51161 6.98739C9.13281 6.97736 8.87453 6.73671 8.86819 6.31282C8.85459 5.37299 8.83647 4.43133 8.88087 3.49332C8.96787 1.68748 10.3997 0.209817 12.1877 0.0338823C12.3826 0.0147392 12.5792 0.00288871 12.7741 0.00288871C17.5979 0.00106556 22.4218 -0.00258075 27.2466 0.00288871C29.272 0.00562344 30.7818 1.25813 31.1053 3.18885C31.1497 3.45594 31.1479 3.73215 31.1479 4.00471C31.1506 6.64282 31.1497 9.28183 31.1497 11.9199C31.1497 12.0858 31.1497 12.2517 31.1497 12.497L31.1506 12.4988ZM20.0194 24.7002C23.4703 24.7002 26.9222 24.7002 30.3731 24.7002C31.6427 24.7002 32.2481 24.0877 32.249 22.7996C32.2508 21.208 32.2472 19.6164 32.2508 18.0239C32.2526 17.3803 32.4402 17.1724 33.0528 17.1059C34.037 17.0002 34.6931 16.3046 34.646 15.4167C34.598 14.5043 33.9101 13.8725 32.926 13.8561C32.1874 13.8443 31.4488 13.8497 30.7102 13.8543C29.562 13.8616 28.9911 14.4386 28.9893 15.5936C28.9866 17.4888 28.9893 19.3839 28.9893 21.2782C28.9893 22.1351 28.818 22.3046 27.9489 22.3046C22.6592 22.3046 17.3687 22.3046 12.079 22.3046C11.1691 22.3046 11.0105 22.1396 11.0105 21.2043C11.0105 19.2946 11.0178 17.3839 11.0069 15.4742C11.0015 14.4523 10.4169 13.8698 9.40468 13.8552C8.60628 13.8443 7.80699 13.8406 7.00859 13.8589C6.08696 13.8807 5.40819 14.5325 5.36922 15.4003C5.32844 16.2919 5.96371 16.9992 6.89713 17.1004C7.59583 17.1761 7.74536 17.3402 7.74627 18.0548C7.74899 19.6465 7.74446 21.2381 7.74808 22.8306C7.7508 24.0649 8.38879 24.6993 9.62217 24.6993C13.0885 24.6993 16.5549 24.6993 20.0212 24.6993L20.0194 24.7002ZM12.3653 20.9136H27.629C27.629 20.4796 27.639 20.0731 27.6272 19.6674C27.6009 18.765 26.9457 18.1068 26.0458 18.0731C25.7903 18.064 25.5338 18.0703 25.2783 18.0703C21.5736 18.0703 17.8698 18.0685 14.1651 18.0703C13.0178 18.0703 12.3798 18.7139 12.3662 19.8698C12.3626 20.2007 12.3662 20.5325 12.3662 20.9136H12.3653ZM27.0273 26.0877C27.4115 27.2855 27.784 28.445 28.1565 29.6036H29.0799C28.9512 28.4158 28.8253 27.2545 28.6993 26.0877H27.0273ZM11.3032 26.0868C11.1782 27.2718 11.0558 28.4231 10.9317 29.6027H11.8515C12.2258 28.4395 12.5982 27.28 12.9825 26.0868H11.3041H11.3032Z" fill="#353131"/>
<path d="M23.5263 6.73415C23.0787 6.69586 22.7533 6.52449 22.7397 6.05958C22.7243 5.54363 23.0913 5.3759 23.5291 5.32121C23.5789 4.86542 23.7611 4.52175 24.2432 4.52813C24.7208 4.53543 24.9011 4.88091 24.9319 5.31756C25.366 5.38502 25.7267 5.52813 25.7249 6.03224C25.724 6.52996 25.3832 6.69313 24.9636 6.73506C24.8114 7.34126 24.6075 7.56004 24.2042 7.53543C23.733 7.50717 23.5816 7.179 23.5263 6.73324V6.73415Z" fill="#353131"/>
<path d="M23.5354 13.5974C23.0977 13.5382 22.737 13.385 22.7398 12.8882C22.7425 12.3996 23.0796 12.22 23.5037 12.1909C23.6551 11.591 23.8816 11.3549 24.2686 11.3759C24.6356 11.396 24.835 11.6266 24.9428 12.169C25.3524 12.2446 25.743 12.3723 25.7267 12.9092C25.7122 13.3868 25.3796 13.5363 24.9455 13.5947C24.8984 14.0286 24.7253 14.4042 24.2278 14.396C23.7566 14.3878 23.5608 14.0487 23.5363 13.5992L23.5354 13.5974Z" fill="#353131"/>
<path d="M15.6945 11.2811C15.951 11.416 16.2083 11.478 16.2192 11.5682C16.2972 12.2428 17.2405 12.1918 17.2714 12.8618C17.2877 13.2146 17.0865 13.4415 16.7367 13.5546C16.6143 13.5947 16.4757 13.7314 16.4367 13.8545C16.3252 14.2054 16.1023 14.4042 15.7507 14.395C15.4208 14.3859 15.2106 14.1918 15.1082 13.8581C15.0701 13.736 14.9333 13.5947 14.8127 13.5564C14.462 13.4461 14.2681 13.2237 14.2772 12.8672C14.2853 12.5327 14.4774 12.3276 14.8073 12.2182C14.936 12.1754 15.0194 11.9967 15.1263 11.8818C15.3148 11.6813 15.5051 11.4826 15.6945 11.282V11.2811Z" fill="#353131"/>
<path d="M15.0515 6.73324C14.621 6.70133 14.3102 6.52813 14.274 6.06414C14.2441 5.68037 14.4842 5.45247 15.0569 5.313C15.0778 5.22914 15.0696 5.09878 15.1313 5.03862C15.3216 4.85174 15.5155 4.60015 15.7484 4.54363C16.0638 4.46706 16.3347 4.68492 16.4063 5.02403C16.4534 5.24828 16.545 5.34308 16.7679 5.3914C17.1032 5.46341 17.2808 5.71865 17.2709 6.05411C17.2609 6.38775 17.0706 6.60653 16.7371 6.70316C16.6293 6.73415 16.477 6.82166 16.4571 6.90826C16.3628 7.32212 16.1435 7.55913 15.7067 7.5336C15.3506 7.51264 15.1938 7.3212 15.0497 6.73415L15.0515 6.73324Z" fill="#353131"/>
<path d="M20.0191 24.6995C16.5527 24.6995 13.0864 24.6995 9.62004 24.6995C8.38666 24.6995 7.74867 24.0651 7.74595 22.8308C7.74233 21.2392 7.74595 19.6476 7.74414 18.055C7.74323 17.3404 7.59371 17.1772 6.895 17.1006C5.96158 16.9994 5.32631 16.2921 5.36709 15.4005C5.40696 14.5327 6.08483 13.8809 7.00647 13.8591C7.80486 13.8399 8.60415 13.8445 9.40255 13.8554C10.4148 13.8691 10.9993 14.4525 11.0048 15.4744C11.0156 17.3841 11.0075 19.2948 11.0084 21.2045C11.0084 22.1398 11.1679 22.3048 12.0768 22.3048C17.3665 22.3048 22.6571 22.3048 27.9468 22.3048C28.8159 22.3048 28.9872 22.1353 28.9872 21.2784C28.9872 19.3832 28.9853 17.488 28.9872 15.5938C28.989 14.4388 29.5599 13.8609 30.7081 13.8545C31.4467 13.8499 32.1853 13.8445 32.9238 13.8563C33.908 13.8718 34.5958 14.5035 34.6439 15.4169C34.691 16.3048 34.0349 17.0003 33.0507 17.1061C32.439 17.1717 32.2505 17.3805 32.2487 18.024C32.2451 19.6157 32.2487 21.2073 32.2469 22.7998C32.246 24.0879 31.6406 24.7004 30.371 24.7004C26.92 24.7004 23.4682 24.7004 20.0173 24.7004L20.0191 24.6995Z" fill="white"/>
<path d="M12.3654 20.9128C12.3654 20.5318 12.3618 20.2 12.3654 19.8691C12.379 18.7132 13.0179 18.0705 14.1643 18.0696C17.8689 18.0669 21.5727 18.0687 25.2774 18.0696C25.5329 18.0696 25.7894 18.0632 26.045 18.0723C26.9449 18.1061 27.6001 18.7642 27.6263 19.6667C27.6381 20.0724 27.6282 20.4798 27.6282 20.9128H12.3654Z" fill="white"/>
</g>
<defs>
<filter id="filter0_d_4_510" x="0" y="0" width="40" height="39" filterUnits="userSpaceOnUse" color-interpolation-filters="sRGB">
<feFlood flood-opacity="0" result="BackgroundImageFix"/>
<feColorMatrix in="SourceAlpha" type="matrix" values="0 0 0 0 0 0 0 0 0 0 0 0 0 0 0 0 0 0 127 0" result="hardAlpha"/>
<feOffset dy="4"/>
<feGaussianBlur stdDeviation="2"/>
<feComposite in2="hardAlpha" operator="out"/>
<feColorMatrix type="matrix" values="0 0 0 0 0 0 0 0 0 0 0 0 0 0 0 0 0 0 0.25 0"/>
<feBlend mode="normal" in2="BackgroundImageFix" result="effect1_dropShadow_4_510"/>
<feBlend mode="normal" in="SourceGraphic" in2="effect1_dropShadow_4_510" result="shape"/>
</filter>
<clipPath id="clip0_4_510">
<rect width="32" height="31" fill="white" transform="translate(4)"/>
</clipPath>
</defs>
</svg>
