<svg width="53" height="55" viewBox="0 0 53 55" fill="none" xmlns="http://www.w3.org/2000/svg">
<g filter="url(#filter0_d_171_2)">
<path d="M40.5699 0C41.0996 0.109717 41.6395 0.181923 42.156 0.336652C46.095 1.51259 48.6124 4.11016 49.3634 8.15936C50.0957 12.1082 48.7404 15.395 45.614 17.9241C45.5056 18.0114 45.3926 18.0939 45.3011 18.1633C45.4757 18.9988 45.6934 19.809 45.8101 20.6342C46.6088 26.2729 42.7865 31.7428 37.2296 32.9459C35.8341 33.2479 34.4311 33.3248 33.0235 33.0575C32.7031 32.9966 32.5218 33.096 32.3304 33.3548C28.9966 37.8588 25.647 42.3525 22.3151 46.8584C21.9387 47.3676 21.4838 47.6058 20.8645 47.6386C19.5932 47.7061 18.3237 47.8036 17.0534 47.8984C15.897 47.9846 15.443 47.6564 15.1796 46.5133C14.9181 45.3758 14.6575 44.2374 14.4053 43.0971C14.0774 41.6201 14.7752 40.4367 16.2277 39.9941C16.6714 39.859 17.1178 39.7315 17.5952 39.5908C17.5429 39.1679 17.4784 38.7712 17.4476 38.3718C17.3869 37.5691 17.7325 37.0645 18.4956 36.8235C18.9795 36.6707 19.4689 36.5328 19.9733 36.3828C19.9182 35.9927 19.8641 35.641 19.8202 35.2875C19.7155 34.4417 20.0845 33.8715 20.8972 33.6211C21.3679 33.4767 21.8415 33.3398 22.3422 33.1916C22.2852 32.7406 22.2581 32.3205 22.175 31.9125C22.0666 31.379 22.2161 30.9373 22.5337 30.5172C23.2744 29.5354 23.9955 28.5395 24.74 27.5605C24.8932 27.3588 24.9221 27.2041 24.8035 26.9762C24.6111 26.6049 24.4579 26.2138 24.2636 25.7778C24.0983 25.8706 23.9395 25.9532 23.7853 26.046C19.2055 28.7992 14.6238 31.5478 10.0524 34.316C9.46862 34.6695 8.92311 34.7286 8.287 34.5007C7.03159 34.0516 5.7603 33.6465 4.49555 33.2207C3.68009 32.9459 3.33915 32.4405 3.46899 31.5815C3.67168 30.2415 3.88465 28.9024 4.149 27.5745C4.39653 26.3339 5.58189 25.5359 6.86439 25.6709C7.35572 25.7225 7.84798 25.775 8.37107 25.8303C8.47195 25.4515 8.56349 25.0932 8.66343 24.7378C8.89882 23.8939 9.46488 23.5225 10.3364 23.6247C10.8118 23.681 11.2882 23.7232 11.7842 23.7738C11.8898 23.3697 11.9729 22.9917 12.0887 22.6232C12.3381 21.8242 12.8976 21.4735 13.7178 21.5701C14.1942 21.6264 14.6724 21.6705 15.1974 21.7248C15.3029 21.3094 15.4159 20.9099 15.5056 20.5058C15.6242 19.9712 15.9119 19.5868 16.3893 19.3101C17.4504 18.694 18.5012 18.0601 19.5418 17.4093C19.6754 17.3259 19.8061 17.1017 19.7987 16.9489C19.4886 10.4765 24.1067 5.32267 30.5238 5.01227C30.8891 4.99445 31.0918 4.8763 31.2954 4.56684C32.988 2.00209 35.3633 0.514824 38.3935 0.0815842C38.4991 0.0665802 38.6009 0.0271947 38.7055 0C39.3267 0 39.9488 0 40.5699 0ZM19.0355 38.3333C19.0916 38.7197 19.1383 39.0582 19.1896 39.3958C19.3176 40.2379 18.9617 40.8277 18.1575 41.0847C17.6848 41.2357 17.2066 41.3716 16.7321 41.5179C16.01 41.7402 15.8073 42.0693 15.9699 42.8073C16.1996 43.8567 16.4612 44.8994 16.677 45.9516C16.7395 46.2564 16.8582 46.3145 17.1449 46.2901C18.2434 46.1973 19.3438 46.1129 20.4451 46.0651C20.8093 46.0491 21.0326 45.9197 21.2456 45.6318C24.6344 41.0509 28.0392 36.4813 31.4234 31.8966C31.7886 31.4015 32.1706 31.2383 32.774 31.3883C34.1518 31.7306 35.5427 31.71 36.927 31.3837C41.6451 30.2715 44.7827 25.8763 44.2773 21.0515C44.2063 20.3717 44.0176 19.7049 43.9074 19.1554C42.694 19.4245 41.5974 19.6862 40.4915 19.9009C40.2299 19.9516 40.1029 20.0369 39.9889 20.2713C39.3267 21.6329 37.8013 22.3128 36.3479 21.9152C34.8673 21.5101 33.8996 20.141 34.0164 18.6134C34.135 17.0567 35.2746 15.8798 36.8513 15.6867C38.2908 15.5104 39.7171 16.435 40.1814 17.8454C40.2327 18.0029 40.2766 18.1633 40.3504 18.4146C41.3275 18.1464 42.2588 17.8904 43.2386 17.6222C43.1265 17.4009 43.0761 17.2902 43.0154 17.1843C40.9697 13.6114 36.6692 11.7416 32.6704 12.6859C26.4213 14.161 23.3575 21.0731 26.4643 26.7099C26.7361 27.2032 26.7184 27.5942 26.3756 28.034C25.7441 28.8442 25.1958 29.7257 24.5158 30.49C23.8517 31.2364 23.6817 31.9998 23.9152 32.9572C24.1356 33.8612 23.7228 34.4435 22.8223 34.7174C22.3655 34.8561 21.9078 34.994 21.4174 35.1412C21.4707 35.552 21.5314 35.9336 21.5688 36.3181C21.6472 37.1152 21.311 37.6338 20.5487 37.8823C20.0639 38.0407 19.5717 38.1748 19.0355 38.3343V38.3333ZM39.3285 11.6787C39.3052 11.6318 39.2547 11.5193 39.195 11.4133C36.1797 6.0513 28.8201 4.92881 24.3897 9.18338C22.1171 11.3655 21.1195 14.0616 21.4529 17.2152C21.5193 17.8407 21.3521 18.243 20.786 18.5477C19.9528 18.996 19.185 19.5755 18.335 19.9844C17.4074 20.4317 16.8909 21.0656 16.7255 22.1056C16.5714 23.0686 16.0436 23.3762 15.0507 23.3068C14.5613 23.2721 14.0727 23.2215 13.5767 23.1774C13.488 23.5544 13.4161 23.8713 13.3367 24.1874C13.1246 25.0351 12.6165 25.4205 11.7515 25.3671C11.2424 25.3361 10.7352 25.2752 10.1897 25.2245C10.0898 25.6043 9.99824 25.9625 9.90203 26.3198C9.68999 27.1038 9.21174 27.4704 8.40656 27.4235C7.84891 27.3907 7.295 27.311 6.73828 27.2576C6.21239 27.2069 5.80607 27.446 5.71546 27.9281C5.48101 29.179 5.27924 30.4365 5.05973 31.7184C6.21053 32.1048 7.33423 32.4574 8.43832 32.8653C8.87641 33.0275 9.20147 32.9713 9.59472 32.7321C14.2184 29.9301 18.8524 27.1432 23.4911 24.3665C23.7695 24.2005 23.8386 24.0373 23.7891 23.7344C23.5696 22.3972 23.6247 21.0647 23.8872 19.7368C24.9791 14.2107 30.3688 10.2496 35.9434 10.936C37.0849 11.0767 38.2011 11.4246 39.3295 11.6778L39.3285 11.6787ZM44.622 16.6282C46.5873 15.3519 48.4293 12.2883 47.8829 8.76421C47.3112 5.07322 44.6351 2.34062 41.0061 1.71421C37.5089 1.1103 34.3321 2.85357 32.8609 5.1323C32.9655 5.167 33.0617 5.2092 33.1636 5.23077C36.8467 6.02504 39.5181 8.13685 41.0435 11.5775C41.5367 12.6906 42.0859 13.6611 42.9752 14.4995C43.6188 15.1062 44.0784 15.9099 44.622 16.6282ZM38.2814 19.93C37.3884 19.6796 36.5272 19.4367 35.666 19.1957C35.7631 19.7837 36.1993 20.2713 36.7841 20.3848C37.352 20.4955 37.8751 20.4036 38.2814 19.9309V19.93ZM36.2731 17.5556C36.7112 17.9298 38.0516 18.3011 38.5841 18.1961C38.1376 17.2368 37.1334 16.9592 36.2731 17.5556Z" fill="white"/>
<path d="M19.0357 38.3333C19.5718 38.1739 20.0641 38.0398 20.5489 37.8813C21.3111 37.6328 21.6465 37.1142 21.5689 36.3172C21.5316 35.9327 21.4708 35.551 21.4176 35.1403C21.9071 34.9921 22.3648 34.8552 22.8225 34.7164C23.7229 34.4426 24.1358 33.8603 23.9153 32.9563C23.6818 31.9988 23.8518 31.2355 24.516 30.489C25.196 29.7248 25.7443 28.8433 26.3757 28.0331C26.7185 27.5942 26.7363 27.2022 26.4645 26.709C23.3577 21.0722 26.4215 14.16 32.6705 12.6849C36.6693 11.7406 40.9699 13.6105 43.0155 17.1833C43.0762 17.2883 43.1267 17.3999 43.2388 17.6212C42.2589 17.8904 41.3276 18.1455 40.3506 18.4136C40.2768 18.1633 40.2329 18.002 40.1815 17.8444C39.7173 16.4331 38.2909 15.5094 36.8515 15.6857C35.2757 15.8789 34.1352 17.0558 34.0165 18.6124C33.9007 20.14 34.8675 21.5092 36.348 21.9143C37.8015 22.3119 39.3268 21.632 39.9891 20.2704C40.103 20.035 40.231 19.9506 40.4916 19.9C41.5976 19.6852 42.6942 19.4236 43.9076 19.1545C44.0169 19.704 44.2056 20.3707 44.2775 21.0506C44.7828 25.8753 41.6452 30.2705 36.9272 31.3827C35.5428 31.7091 34.1529 31.7297 32.7742 31.3874C32.1708 31.2374 31.7888 31.4005 31.4235 31.8957C28.0393 36.4803 24.6346 41.05 21.2457 45.6309C21.0318 45.9197 20.8086 46.0482 20.4452 46.0641C19.3439 46.1119 18.2436 46.1963 17.1451 46.2892C16.8583 46.3136 16.7397 46.2564 16.6771 45.9507C16.4613 44.8985 16.1998 43.8557 15.97 42.8064C15.8084 42.0684 16.0102 41.7392 16.7322 41.517C17.2067 41.3707 17.6841 41.2347 18.1576 41.0837C18.9619 40.8268 19.3178 40.2379 19.1898 39.3948C19.1384 39.0573 19.0917 38.7187 19.0357 38.3324V38.3333ZM30.8631 29.7538C30.6408 29.5335 30.4595 29.2437 30.2008 29.1246C29.815 28.9464 29.4928 29.1659 29.2462 29.4978C25.8891 34.0225 22.5273 38.5443 19.1711 43.0699C18.833 43.5256 18.875 43.9748 19.2533 44.2693C19.6456 44.575 20.0949 44.4878 20.4546 44.0048C23.8173 39.4839 27.1762 34.9602 30.5315 30.4337C30.6557 30.2659 30.7202 30.053 30.8631 29.7538Z" fill="#FF0000" fill-opacity="0.7"/>
<path d="M39.3288 11.6787C38.2004 11.4255 37.0842 11.0776 35.9428 10.937C30.3681 10.2505 24.9785 14.2116 23.8865 19.7377C23.624 21.0665 23.5689 22.3981 23.7884 23.7354C23.8379 24.0392 23.7679 24.2014 23.4905 24.3674C18.8518 27.1441 14.2178 29.9301 9.59407 32.7331C9.20082 32.9713 8.87482 33.0275 8.43767 32.8662C7.33358 32.4583 6.20988 32.1057 5.05908 31.7194C5.27859 30.4375 5.48035 29.1799 5.71481 27.929C5.80448 27.4479 6.21174 27.2079 6.73763 27.2585C7.29435 27.3119 7.84826 27.3926 8.40591 27.4245C9.21109 27.4714 9.68934 27.1047 9.90138 26.3207C9.99759 25.9635 10.0891 25.6062 10.1891 25.2255C10.7346 25.2761 11.2418 25.337 11.7509 25.368C12.6168 25.4205 13.1249 25.036 13.336 24.1883C13.4145 23.8723 13.4864 23.5544 13.5761 23.1784C14.073 23.2224 14.5615 23.2731 15.0501 23.3078C16.043 23.3772 16.5708 23.0696 16.7249 22.1065C16.8911 21.0675 17.4068 20.4326 18.3343 19.9853C19.1843 19.5755 19.9512 18.9969 20.7853 18.5487C21.3514 18.2439 21.5186 17.8416 21.4523 17.2161C21.1188 14.0616 22.1164 11.3665 24.389 9.18432C28.8203 4.92975 36.1791 6.05224 39.1943 11.4143C39.2541 11.5203 39.3045 11.6318 39.3279 11.6797L39.3288 11.6787ZM8.73284 31.2739C9.03829 31.1342 9.25686 31.0592 9.45115 30.942C11.7817 29.5457 14.1085 28.1437 16.4362 26.7437C18.2054 25.6793 19.9802 24.6234 21.7381 23.5413C21.9688 23.3987 22.2341 23.1352 22.2677 22.898C22.3032 22.6466 22.1454 22.2894 21.953 22.1037C21.6634 21.8252 21.2963 21.9527 20.9666 22.1515C16.8314 24.6441 12.6943 27.1319 8.5591 29.6235C8.44047 29.6948 8.26953 29.7707 8.23871 29.8776C8.15931 30.1561 8.04816 30.4853 8.13222 30.7329C8.20788 30.956 8.52454 31.0967 8.73377 31.273L8.73284 31.2739Z" fill="#FF0000" fill-opacity="0.7"/>
<path d="M30.8629 29.7538C30.72 30.0521 30.6556 30.2659 30.5313 30.4337C27.177 34.9612 23.8171 39.4839 20.4544 44.0048C20.0948 44.4878 19.6455 44.575 19.2532 44.2693C18.8749 43.9748 18.8328 43.5256 19.171 43.0699C22.5272 38.5443 25.8889 34.0225 29.246 29.4978C29.4926 29.1659 29.8149 28.9464 30.2007 29.1246C30.4594 29.2437 30.6397 29.5335 30.8629 29.7538Z" fill="white"/>
<path d="M8.73286 31.2739C8.52363 31.0976 8.20697 30.957 8.13131 30.7338C8.04725 30.4872 8.1584 30.1571 8.2378 29.8786C8.26862 29.7717 8.43956 29.6957 8.55819 29.6244C12.6934 27.1328 16.8314 24.645 20.9656 22.1525C21.2963 21.9537 21.6625 21.8252 21.952 22.1046C22.1445 22.2903 22.3023 22.6476 22.2668 22.8989C22.2332 23.1371 21.9679 23.4006 21.7372 23.5422C19.9793 24.6253 18.2045 25.6803 16.4353 26.7446C14.1076 28.1447 11.7808 29.5466 9.45024 30.9429C9.25595 31.0592 9.03738 31.1352 8.73193 31.2749L8.73286 31.2739Z" fill="white"/>
</g>
<defs>
<filter id="filter0_d_171_2" x="0.35123" y="0" width="52.2975" height="54.0932" filterUnits="userSpaceOnUse" color-interpolation-filters="sRGB">
<feFlood flood-opacity="0" result="BackgroundImageFix"/>
<feColorMatrix in="SourceAlpha" type="matrix" values="0 0 0 0 0 0 0 0 0 0 0 0 0 0 0 0 0 0 127 0" result="hardAlpha"/>
<feOffset dy="3.09091"/>
<feGaussianBlur stdDeviation="1.54545"/>
<feComposite in2="hardAlpha" operator="out"/>
<feColorMatrix type="matrix" values="0 0 0 0 0 0 0 0 0 0 0 0 0 0 0 0 0 0 0.25 0"/>
<feBlend mode="normal" in2="BackgroundImageFix" result="effect1_dropShadow_171_2"/>
<feBlend mode="normal" in="SourceGraphic" in2="effect1_dropShadow_171_2" result="shape"/>
</filter>
</defs>
</svg>
