<svg width="55" height="41" viewBox="0 0 55 41" fill="none" xmlns="http://www.w3.org/2000/svg">
<path d="M18.6007 14.9003C16.8121 14.9003 15.0234 14.8875 13.2348 14.9077C12.7032 14.9141 12.5073 14.7616 12.5159 14.2665C12.5439 12.6725 12.5406 11.0775 12.517 9.48351C12.5094 9.00979 12.7075 8.8775 13.21 8.87856C16.7873 8.89243 20.3646 8.8935 23.9408 8.87856C24.4552 8.87643 24.6338 9.02793 24.6274 9.48991C24.6069 11.102 24.608 12.7141 24.6263 14.3263C24.6317 14.768 24.4444 14.912 23.9645 14.9077C22.1758 14.8907 20.3872 14.9013 18.5985 14.9013L18.6007 14.9003Z" fill="white"/>
<path d="M39.6399 0.499968H46.2994C47.3875 0.93954 47.7501 1.7472 47.7351 2.89308C47.6888 6.33177 47.7286 9.77046 47.7114 13.2092C47.7071 14.0968 47.6565 14.961 48.3474 15.6769C48.5304 15.8669 48.5949 16.1827 48.6767 16.4515C48.8575 17.0447 48.9931 17.6508 49.1922 18.2365C49.2622 18.4424 49.4268 18.6761 49.6141 18.7753C51.746 19.9062 52.861 21.64 52.8771 24.0491C52.8793 24.415 52.8771 24.7821 52.8771 25.1747C53.9824 25.1267 54.5947 25.6996 54.9994 26.5681V31.8888C54.6259 32.6869 54.0674 33.2534 53.0967 33.2972C53.0967 33.5436 53.0967 33.7367 53.0967 33.9299C53.0967 35.4726 53.1074 37.0154 53.0913 38.5571C53.0794 39.6752 52.3423 40.4338 51.2187 40.4722C50.2889 40.5032 49.3569 40.501 48.4271 40.4744C47.2841 40.4402 46.5362 39.6592 46.5168 38.5315C46.5125 38.2744 46.5168 38.0172 46.5168 37.7814H8.4884C8.4884 38.0727 8.49378 38.3213 8.4884 38.5688C8.46257 39.6432 7.73614 40.4231 6.64703 40.469C5.68276 40.5096 4.71311 40.5074 3.74884 40.469C2.65435 40.4253 1.93761 39.6635 1.91501 38.5731C1.89994 37.8465 1.9107 37.1189 1.9107 36.3923C1.9107 35.367 1.9107 34.3417 1.9107 33.3292C0.605276 33.0518 0.0155218 32.4308 0.00906467 31.3415C0.000455109 29.9054 -0.00492586 28.4693 0.0122932 27.0333C0.0241314 26.0357 0.744106 25.2867 1.73528 25.1875C1.85366 25.1758 1.97204 25.1598 2.13455 25.1416C2.13455 24.6519 2.11948 24.1931 2.1367 23.7354C2.21849 21.6837 3.13864 20.0727 4.92082 19.057C5.59344 18.6729 5.84204 18.2013 6.04221 17.5345C6.28866 16.714 6.67717 15.9362 6.99787 15.1371C7.10441 14.8714 7.27338 14.5983 7.27445 14.3284C7.29275 10.5162 7.31427 6.70412 7.27015 2.89201C7.25724 1.7472 7.61561 0.937407 8.70579 0.498901H36.4178C36.7557 0.778435 37.07 1.06757 36.872 1.57009C36.6782 2.06088 36.265 2.11636 35.8119 2.09608C35.6688 2.08968 35.5256 2.09608 35.3825 2.09608C26.7923 2.09608 18.2011 2.09608 9.61087 2.09608C9.13735 2.09608 8.90023 2.33116 8.89951 2.80132C8.89951 6.27629 8.89951 9.75126 8.89951 13.2262C8.89951 13.4161 8.89951 13.606 8.89951 13.7853C9.74432 13.7479 10.5213 13.7127 11.3349 13.6765C11.3349 12.2169 11.3274 10.8011 11.3371 9.38423C11.3468 8.02284 12.0937 7.29307 13.4733 7.292C16.7848 7.2888 20.0952 7.32081 23.4055 7.27493C24.584 7.25892 25.7861 7.99617 25.5439 9.85368C25.4826 10.3242 25.0715 10.6197 24.6302 10.5525C24.175 10.4821 23.9253 10.1695 23.9565 9.57094C23.9845 9.03428 23.793 8.87211 23.2495 8.87638C20.0284 8.89878 16.8063 8.89665 13.5853 8.87745C13.0848 8.87424 12.9299 9.03855 12.9363 9.5208C12.9578 11.0806 12.9428 12.6415 12.9449 14.2014C12.9449 14.8832 12.9654 14.9002 13.6821 14.9013C16.6535 14.9013 19.6238 14.9013 22.5952 14.9013C23.4669 14.9013 23.9174 14.4799 23.9469 13.637C23.9479 13.6018 23.9469 13.5666 23.949 13.5303C23.9705 13.0982 24.2084 12.8251 24.6249 12.7589C25.0478 12.6917 25.3502 12.8944 25.4998 13.2966C25.5472 13.4236 25.5741 13.5591 25.6042 13.6722H29.443C29.443 12.2137 29.4398 10.7968 29.443 9.37997C29.4473 8.05485 30.2049 7.2952 31.5362 7.29306C34.8831 7.28773 38.2301 7.28773 41.576 7.29306C42.889 7.2952 43.6477 8.03031 43.6627 9.32662C43.6778 10.5856 43.6649 11.8446 43.6681 13.1035C43.6681 13.2913 43.6864 13.4802 43.6993 13.7383H46.0745C46.0809 13.7063 46.0992 13.6551 46.0992 13.605C46.1014 9.93477 46.0982 6.26455 46.1089 2.59434C46.11 2.18251 45.9314 2.08862 45.5568 2.09182C43.7854 2.10462 42.0129 2.09288 40.2415 2.10035C39.7884 2.10249 39.3741 2.06301 39.1815 1.57223C38.9845 1.07077 39.2977 0.780569 39.6367 0.502102L39.6399 0.499968ZM3.8048 25.1832C3.98668 25.1832 4.17824 25.1832 4.3698 25.1832C6.41027 25.1832 8.45074 25.1832 10.4912 25.1832C10.616 25.1832 10.742 25.1779 10.8668 25.1854C11.3403 25.2142 11.6653 25.5118 11.6912 25.9343C11.717 26.3654 11.3812 26.726 10.8969 26.7729C10.7376 26.7889 10.5751 26.7793 10.4137 26.7793C7.6748 26.7793 4.93696 26.7879 2.19804 26.7719C1.7568 26.7697 1.59753 26.8988 1.60721 27.3469C1.63304 28.4811 1.61582 29.6163 1.61582 30.7515C1.61582 31.3717 1.92039 31.6819 2.52951 31.6819C15.2738 31.6819 28.017 31.6819 40.7613 31.6819C44.7529 31.6819 48.7445 31.6733 52.7351 31.6925C53.2624 31.6947 53.412 31.5282 53.3969 31.0236C53.3646 29.8724 53.3872 28.719 53.3862 27.5657C53.3862 27.0414 53.1225 26.7793 52.5952 26.7793C40.1016 26.7793 27.6091 26.7793 15.1156 26.7793C14.2902 26.7793 13.8974 26.5307 13.8791 25.9994C13.8608 25.4478 14.2622 25.1843 15.1221 25.1843C26.9354 25.1843 38.7478 25.1843 50.5611 25.1843C50.7861 25.1843 51.0099 25.1843 51.2962 25.1843C51.2564 24.43 51.3005 23.7439 51.1703 23.0921C50.7721 21.1044 49.076 19.7953 46.8827 19.7942C33.9415 19.7835 21.0013 19.7878 8.06008 19.7942C7.65327 19.7942 7.23463 19.8433 6.84075 19.9436C4.59365 20.5186 3.37432 22.6066 3.80157 25.1843L3.8048 25.1832ZM8.51531 36.1064H46.4878V33.3057H8.51531V36.1064ZM7.56933 18.1693H47.4875C47.3519 17.687 47.2475 17.2389 47.1001 16.8057C46.8181 15.9757 46.2252 15.4678 45.3513 15.3537C44.8229 15.2854 44.2794 15.3057 43.7445 15.3238C43.624 15.3281 43.4733 15.4646 43.3969 15.5799C43.002 16.1752 42.4553 16.491 41.7374 16.4921C38.2839 16.4953 34.8304 16.4942 31.3758 16.4921C30.6774 16.4921 30.1576 16.1741 29.7422 15.6236C29.627 15.471 29.3881 15.3302 29.2019 15.3249C28.0751 15.2971 26.9473 15.2982 25.8205 15.3249C25.6311 15.3291 25.3814 15.4572 25.2717 15.6076C24.8509 16.1837 24.3106 16.4953 23.5939 16.4953C20.1576 16.4953 16.7224 16.4963 13.2861 16.4953C12.5693 16.4953 12.0269 16.1827 11.6115 15.6023C11.5104 15.4614 11.2887 15.3302 11.1175 15.3238C8.65952 15.232 8.0816 15.6833 7.55642 18.0668C7.55319 18.0829 7.55965 18.1021 7.56825 18.1703L7.56933 18.1693ZM36.5825 14.9002C38.2097 14.9002 39.8369 14.8896 41.4641 14.9066C41.8999 14.9109 42.07 14.7669 42.0657 14.3252C42.0495 12.713 42.0474 11.1009 42.0657 9.48879C42.071 9.02681 41.9085 8.87531 41.4415 8.87745C38.1871 8.89345 34.9327 8.89238 31.6782 8.87745C31.2209 8.87531 31.0411 9.00868 31.0476 9.48239C31.0691 11.0764 31.0723 12.6714 31.0465 14.2654C31.039 14.7605 31.2166 14.913 31.6998 14.9066C33.327 14.8864 34.9542 14.8992 36.5814 14.8992L36.5825 14.9002ZM3.52176 33.3004C3.52176 35.0544 3.52607 36.7529 3.51853 38.4504C3.51638 38.8196 3.72086 38.891 4.0308 38.8878C4.78091 38.8814 5.53209 38.8654 6.28113 38.8932C6.76003 38.9103 6.89348 38.7171 6.88702 38.2648C6.8655 36.7604 6.87949 35.256 6.87734 33.7517C6.87734 33.6002 6.85581 33.4487 6.84505 33.2993H3.52176V33.3004ZM48.13 33.3004C48.13 35.0533 48.1322 36.7657 48.1279 38.4781C48.1279 38.8206 48.3356 38.8878 48.6186 38.8868C49.3687 38.8846 50.1199 38.8665 50.8689 38.8942C51.3263 38.9113 51.5071 38.7662 51.4953 38.2914C51.4673 37.1776 51.4867 36.0616 51.4867 34.9466C51.4867 34.4046 51.4867 33.8626 51.4867 33.3004H48.13Z" fill="#353131"/>
<path d="M3.80513 25.1833C3.37788 22.6056 4.59721 20.5187 6.8443 19.9425C7.23819 19.8412 7.65683 19.7932 8.06363 19.7932C21.0049 19.7857 33.945 19.7814 46.8863 19.7932C49.0796 19.7953 50.7756 21.1044 51.1738 23.091C51.304 23.7429 51.2599 24.429 51.2997 25.1833C51.0135 25.1833 50.7886 25.1833 50.5647 25.1833C38.7513 25.1833 26.939 25.1833 15.1256 25.1833C14.2647 25.1833 13.8632 25.4468 13.8826 25.9984C13.9009 26.5297 14.2926 26.7783 15.1192 26.7783C27.6127 26.7783 40.1052 26.7783 52.5987 26.7783C53.1253 26.7783 53.389 27.0404 53.3897 27.5646C53.3897 28.7169 53.3671 29.8703 53.4005 31.0225C53.4145 31.5283 53.2649 31.6947 52.7386 31.6915C48.747 31.6712 44.7554 31.6808 40.7649 31.6808C28.0206 31.6808 15.2774 31.6808 2.53306 31.6808C1.92394 31.6808 1.61937 31.3707 1.61937 30.7505C1.61937 29.6153 1.63659 28.4801 1.61077 27.3459C1.60108 26.8978 1.76036 26.7687 2.2016 26.7709C4.94051 26.7869 7.67835 26.7794 10.4173 26.7783C10.5787 26.7783 10.7401 26.7869 10.9005 26.7719C11.3848 26.725 11.7205 26.3644 11.6947 25.9333C11.6689 25.5108 11.3439 25.2131 10.8703 25.1843C10.7455 25.1769 10.6196 25.1822 10.4948 25.1822C8.45429 25.1822 6.41382 25.1822 4.37336 25.1822C4.18179 25.1822 3.99023 25.1822 3.80835 25.1822L3.80513 25.1833Z" fill="white"/>
<path d="M7.5707 18.1693C7.56209 18.1 7.55456 18.0818 7.55887 18.0658C8.08405 15.6823 8.66304 15.2299 11.12 15.3228C11.2911 15.3292 11.5128 15.4604 11.614 15.6012C12.0283 16.1816 12.5707 16.4943 13.2885 16.4943C16.7248 16.4964 20.16 16.4953 23.5963 16.4943C24.3141 16.4943 24.8533 16.1827 25.2741 15.6066C25.3839 15.4561 25.6346 15.3281 25.823 15.3238C26.9497 15.2982 28.0776 15.2972 29.2044 15.3238C29.3905 15.3281 29.6295 15.47 29.7446 15.6226C30.159 16.1731 30.6798 16.4911 31.3783 16.4911C34.8318 16.4932 38.2853 16.4943 41.7399 16.4911C42.4577 16.4911 43.0033 16.1752 43.3994 15.5788C43.4758 15.4636 43.6264 15.327 43.747 15.3228C44.2818 15.3046 44.8253 15.2844 45.3537 15.3526C46.2265 15.4657 46.8206 15.9747 47.1026 16.8047C47.25 17.2379 47.3544 17.6849 47.49 18.1683H7.5707V18.1693Z" fill="white"/>
<path d="M36.583 14.9003C34.9558 14.9003 33.3286 14.8875 31.7014 14.9077C31.2182 14.9141 31.0395 14.7616 31.0481 14.2665C31.074 12.6725 31.0707 11.0775 31.0492 9.48351C31.0428 9.00979 31.2225 8.8775 31.6799 8.87856C34.9343 8.89243 38.1887 8.8935 41.4431 8.87856C41.9113 8.87643 42.0727 9.02793 42.0673 9.48991C42.0479 11.102 42.0501 12.7141 42.0673 14.3263C42.0716 14.768 41.9016 14.912 41.4657 14.9077C39.8385 14.8907 38.2113 14.9013 36.5841 14.9013L36.583 14.9003Z" fill="white"/>
</svg>
