<svg width="36" height="36" viewBox="0 0 36 36" fill="none" xmlns="http://www.w3.org/2000/svg">
<g clip-path="url(#clip0_210_358)">
<path d="M27.3204 8.57342C27.9688 8.57342 28.572 8.48578 29.1391 8.59018C30.5517 8.85054 31.5365 10.057 31.5725 11.4992C31.5996 12.5922 31.5777 13.6865 31.5777 14.8414C31.7672 14.8066 31.9012 14.7821 32.034 14.7563C33.841 14.4006 35.6429 15.7204 35.6945 17.5584C35.7976 21.2009 35.8182 24.8523 34.8296 28.402C34.3643 30.0711 33.7804 31.7106 33.1618 33.3308C32.6501 34.6699 31.588 35.3234 30.1483 35.3247C26.4917 35.3273 22.835 35.3221 19.1784 35.3286C18.3007 35.3299 17.5621 35.0347 16.888 34.4663C14.2432 32.2326 12.9697 29.3906 13.0174 25.9376C13.0342 24.7299 13.0728 23.5183 13.0084 22.3132C12.8885 20.0666 14.7523 18.3305 17.1535 18.9788V18.4632C17.1535 16.6265 17.2115 14.7872 17.1394 12.9531C17.0427 10.5029 19.2738 9.04387 21.1427 9.67802C21.1685 9.68704 21.2046 9.66899 21.2355 9.66255C21.6492 7.67247 22.4625 6.7161 23.91 6.51761C25.4141 6.31139 26.4826 6.97904 27.3217 8.57471L27.3204 8.57342ZM19.2068 19.3319C19.2068 21.1686 19.2068 23.0066 19.2068 24.8433C19.2068 25.2622 19.2197 25.6824 19.1939 26.1C19.1604 26.6491 18.7569 27.0319 18.2259 27.0538C17.6833 27.077 17.2296 26.6903 17.1626 26.14C17.1445 25.9969 17.1522 25.8499 17.1522 25.7056C17.1522 24.4644 17.16 23.2244 17.1484 21.9832C17.1419 21.2627 16.6405 20.8155 15.9716 20.8993C15.438 20.9663 15.1055 21.3658 15.1016 21.9922C15.0926 23.4268 15.0951 24.8601 15.099 26.2946C15.1055 28.9382 16.1611 31.0894 18.1408 32.8165C18.5069 33.1361 18.8961 33.2599 19.3717 33.2586C22.7551 33.2496 26.1385 33.2534 29.5219 33.2534C29.7475 33.2534 29.973 33.2534 30.1986 33.2521C30.7219 33.2457 31.0686 32.9982 31.2787 32.5149C32.2466 30.2902 32.9182 27.9818 33.31 25.587C33.7134 23.1239 33.6632 20.6428 33.6619 18.1616C33.6619 17.2388 33.3139 16.7657 32.6346 16.758C31.9386 16.7503 31.5841 17.2297 31.5829 18.1848C31.5816 19.426 31.5919 20.666 31.5751 21.9072C31.5674 22.5091 31.1408 22.9306 30.5852 22.9447C30.0181 22.9589 29.5657 22.5181 29.5322 21.911C29.5245 21.7667 29.5296 21.621 29.5296 21.4754C29.5296 18.3176 29.5296 15.1585 29.5296 12.0006C29.5296 11.8395 29.5374 11.6771 29.5219 11.5173C29.4652 10.9631 29.0231 10.5648 28.4856 10.5712C27.943 10.5777 27.5267 10.9798 27.4841 11.5456C27.4725 11.7055 27.4764 11.8679 27.4764 12.029C27.4764 15.1868 27.4764 18.3459 27.4764 21.5037C27.4764 22.4447 27.1052 22.9486 26.4234 22.937C25.757 22.9267 25.3987 22.4356 25.3987 21.5231C25.3987 17.6718 25.3987 13.8206 25.3987 9.96931C25.3987 9.79273 25.4038 9.61357 25.3871 9.43828C25.3355 8.89178 24.9334 8.52058 24.3972 8.51026C23.8649 8.50124 23.4318 8.86214 23.3583 9.39317C23.3338 9.56717 23.3442 9.74762 23.3442 9.9242C23.3442 13.7755 23.3442 17.6267 23.3442 21.478C23.3442 21.6391 23.3532 21.8015 23.3377 21.9613C23.2978 22.3802 23.0915 22.6883 22.6971 22.8519C21.9792 23.1497 21.2961 22.6431 21.2935 21.7847C21.2858 18.8679 21.2909 15.9511 21.2871 13.0343C21.2871 12.8101 21.2806 12.5806 21.2303 12.3641C21.1195 11.8898 20.7264 11.6011 20.2443 11.6036C19.7636 11.6062 19.3756 11.8988 19.2661 12.3744C19.2197 12.5755 19.2132 12.7894 19.2132 12.997C19.2093 15.1082 19.2106 17.2194 19.2106 19.3294L19.2068 19.3319Z" fill="#333333"/>
<path d="M8.93397 8.55272V11.0777C9.10153 10.9488 9.21753 10.8496 9.34256 10.7632C9.77563 10.4655 10.3041 10.5131 10.6637 10.8792C11.0233 11.244 11.1045 11.8137 10.7513 12.1965C10.0308 12.9763 9.27811 13.729 8.49961 14.4521C8.09618 14.8271 7.52777 14.7575 7.10372 14.3464C6.4438 13.7084 5.79548 13.0575 5.1536 12.4014C4.678 11.9155 4.65351 11.3277 5.06467 10.8947C5.47583 10.4616 6.03393 10.4642 6.57269 10.9024C6.63069 10.9488 6.6874 10.9952 6.79825 11.0854V8.55014H4.26941C4.40088 8.7177 4.50271 8.83499 4.58906 8.96259C4.88164 9.39824 4.82364 9.92798 4.45115 10.2824C4.09412 10.6227 3.5386 10.7104 3.17384 10.3727C2.37085 9.63025 1.59364 8.85561 0.852517 8.05262C0.513534 7.68399 0.594735 7.12976 0.974963 6.73278C1.6336 6.04837 2.30512 5.37427 2.99082 4.71693C3.4574 4.26968 4.04385 4.27354 4.46017 4.67955C4.86489 5.07524 4.87778 5.62432 4.49368 6.11539C4.43568 6.19015 4.37381 6.26233 4.26941 6.38735H6.80083V3.88043C6.65132 3.99385 6.53402 4.08794 6.41158 4.17301C5.96175 4.48621 5.41783 4.43079 5.05307 4.03896C4.70506 3.66389 4.64835 3.10321 5.00667 2.71912C5.72072 1.9548 6.46442 1.21496 7.22488 0.497041C7.59866 0.14388 8.1284 0.138724 8.50348 0.489307C9.2562 1.19305 9.98572 1.92257 10.692 2.67272C11.0723 3.07744 11.0297 3.64584 10.6688 4.03252C10.3118 4.41661 9.75758 4.46559 9.30904 4.14981C9.20464 4.07634 9.11055 3.98998 8.95717 3.86625V6.40153H11.4654C11.3533 6.25588 11.2579 6.14117 11.1728 6.02001C10.866 5.58694 10.9034 5.06364 11.2617 4.6963C11.6329 4.31608 12.2181 4.23616 12.6164 4.60479C13.3833 5.31627 14.1244 6.05868 14.8359 6.82558C15.2226 7.2419 15.1555 7.81546 14.7237 8.26271C14.0857 8.92264 13.4361 9.57224 12.7762 10.2115C12.3083 10.6652 11.7335 10.6833 11.3056 10.2902C10.8738 9.89447 10.8544 9.32735 11.2566 8.82081C11.3146 8.74863 11.3752 8.67903 11.4821 8.55272H8.93526H8.93397Z" fill="#333333"/>
<path d="M19.207 19.332C19.207 17.2208 19.2057 15.1095 19.2095 12.9996C19.2095 12.7921 19.216 12.5781 19.2624 12.3771C19.3719 11.9015 19.7599 11.6076 20.2407 11.6063C20.7227 11.6037 21.1158 11.8924 21.2267 12.3667C21.2769 12.5833 21.2834 12.8127 21.2834 13.037C21.2873 15.9538 21.2808 18.8706 21.2898 21.7874C21.2924 22.6445 21.9768 23.1523 22.6935 22.8546C23.0879 22.6909 23.2941 22.3816 23.334 21.964C23.3495 21.8041 23.3405 21.6417 23.3405 21.4806C23.3405 17.6294 23.3405 13.7781 23.3405 9.92684C23.3405 9.75026 23.3302 9.56982 23.3547 9.39581C23.4281 8.86478 23.8599 8.5026 24.3935 8.51291C24.9297 8.52193 25.3319 8.89443 25.3834 9.44092C25.4002 9.61622 25.395 9.79537 25.395 9.97195C25.395 13.8232 25.395 17.6745 25.395 21.5257C25.395 22.437 25.7533 22.9293 26.4197 22.9397C27.1015 22.95 27.4727 22.4473 27.4727 21.5064C27.4727 18.3486 27.4727 15.1895 27.4727 12.0316C27.4727 11.8705 27.4689 11.7094 27.4805 11.5483C27.523 10.9825 27.9393 10.5803 28.4819 10.5739C29.0194 10.5674 29.4615 10.967 29.5182 11.5199C29.535 11.6798 29.526 11.8422 29.526 12.0033C29.526 15.1611 29.526 18.3202 29.526 21.478C29.526 21.6237 29.5208 21.768 29.5285 21.9137C29.562 22.5208 30.0145 22.9629 30.5816 22.9474C31.1384 22.9332 31.5637 22.5117 31.5715 21.9098C31.5882 20.6686 31.5779 19.4287 31.5792 18.1875C31.5792 17.2324 31.9336 16.7529 32.6309 16.7606C33.3102 16.7684 33.6582 17.2414 33.6582 18.1643C33.6595 20.6454 33.7085 23.1266 33.3063 25.5897C32.9145 27.9844 32.2443 30.2929 31.275 32.5175C31.0636 33.0022 30.7182 33.2496 30.1949 33.2548C29.9693 33.2574 29.7438 33.2561 29.5182 33.2561C26.1348 33.2561 22.7515 33.2522 19.3681 33.2612C18.8925 33.2612 18.5032 33.1388 18.1372 32.8191C16.1574 31.0907 15.1018 28.9395 15.0953 26.2973C15.0915 24.8627 15.0889 23.4294 15.0979 21.9949C15.1018 21.3685 15.4356 20.9689 15.9679 20.9019C16.6369 20.8181 17.1383 21.2654 17.1447 21.9859C17.1563 23.2271 17.1473 24.467 17.1486 25.7082C17.1486 25.8526 17.1408 25.9995 17.1589 26.1426C17.2259 26.6943 17.6796 27.0796 18.2222 27.0564C18.752 27.0345 19.1567 26.6517 19.1902 26.1026C19.216 25.685 19.2031 25.2649 19.2031 24.846C19.2031 23.0093 19.2031 21.1713 19.2031 19.3346L19.207 19.332Z" fill="white"/>
</g>
<defs>
<clipPath id="clip0_210_358">
<rect width="35.1034" height="35.0996" fill="white" transform="translate(0.637695 0.229004)"/>
</clipPath>
</defs>
</svg>
