<svg width="39" height="49" viewBox="0 0 39 49" fill="none" xmlns="http://www.w3.org/2000/svg">
<path d="M23.7155 0.5C24.195 0.666136 24.69 0.797618 25.15 1.00554C26.1646 1.46318 26.8881 2.24086 27.4324 3.2234C28.7486 2.76679 30.0843 2.50586 31.4622 2.5558C34.2015 2.65569 36.5879 3.61275 38.5843 5.49121C39.1348 6.00898 39.141 6.41362 38.5904 6.95687C37.7322 7.80488 36.8637 8.64167 35.9931 9.48968C36.6291 10.5171 36.9728 11.5638 36.9645 12.7135C36.9357 17.031 32.269 19.7616 28.4563 17.6721C28.0951 17.4744 27.9151 17.5192 27.6475 17.7965C26.7831 18.6893 25.8909 19.5547 25.0049 20.4261C24.44 20.9816 24.0222 20.9775 23.484 20.4016C21.254 18.0166 20.2939 15.2056 20.6119 11.9674C20.6294 11.7901 20.6356 11.6107 20.6531 11.3325C20.4606 11.5068 20.3361 11.6117 20.2209 11.7249C16.3372 15.5705 12.4546 19.4171 8.57199 23.2647C8.03895 23.7926 8.03792 24.395 8.56788 24.9199C12.0512 28.3711 15.5366 31.8202 19.0169 35.2744C19.2309 35.4874 19.4192 35.6219 19.766 35.5648C23.2288 34.9931 26.1492 38.1394 25.3157 41.5243C25.2838 41.6548 25.2498 41.7853 25.2056 41.9565H27.1042C27.1042 41.4795 27.1021 40.9943 27.1042 40.5102C27.1124 39.0323 28.1579 37.9325 29.5564 37.9264C30.9672 37.9203 32.023 39.0078 32.0302 40.4847C32.0364 41.773 32.022 43.0603 32.0395 44.3486C32.0426 44.5892 32.1486 44.8297 32.2114 45.0692C32.4223 45.8653 32.7012 46.6501 32.8278 47.4594C32.9379 48.1626 32.5633 48.4908 31.843 48.4939C30.4229 48.499 29.0038 48.4959 27.5837 48.4959C21.5288 48.4959 15.4728 48.4959 9.41787 48.4959C8.42484 48.4959 8.14288 48.1861 8.23138 47.1933C8.48967 44.3007 10.9007 42.0605 13.8356 41.9952C14.4839 41.9809 15.1322 41.9932 15.7733 41.9932C15.7146 41.3388 15.5201 40.6957 15.6385 40.1147C15.8031 39.3095 15.4265 38.8835 14.9243 38.3902C11.5851 35.1082 8.26328 31.8079 4.94459 28.5056C4.69865 28.261 4.46197 28.1499 4.1018 28.1519C2.21658 28.1621 0.590675 26.8922 0.120399 25.084C0.0874693 24.9576 0.040133 24.8323 0 24.7069C0 24.3002 0 23.8936 0 23.4869C0.0257263 23.4441 0.0627721 23.4043 0.0740917 23.3574C0.614343 21.2038 2.03855 20.0877 4.3004 20.0235C4.4774 20.0184 4.69144 19.9144 4.82007 19.7881C9.20177 15.4604 13.5763 11.1276 17.9394 6.78258C18.0773 6.64601 18.1597 6.36266 18.1319 6.16798C17.8201 4.04287 18.8388 1.9993 20.7539 1.04835C21.2334 0.809848 21.7685 0.680405 22.2779 0.501019C22.7575 0.501019 23.236 0.501019 23.7155 0.501019V0.5ZM36.9028 6.21181C33.7045 3.44764 28.1157 3.28965 24.6026 7.02822C21.0636 10.7933 21.7902 16.1392 24.2527 18.7484C28.4697 14.5696 32.6878 10.3897 36.9038 6.21283L36.9028 6.21181ZM9.98488 46.856H31.0825C30.7964 45.2914 29.5327 43.9552 27.9356 43.7442C26.7584 43.5883 25.5503 43.6556 24.3566 43.6433C24.23 43.6423 24.0829 43.7605 23.9769 43.8574C21.9157 45.7358 19.1486 45.7348 17.0884 43.8604C16.9639 43.7463 16.7715 43.6464 16.6079 43.6433C15.6508 43.625 14.6918 43.6036 13.7358 43.6454C11.8897 43.7259 10.2638 45.1304 9.98488 46.857V46.856ZM20.5172 37.1161C18.7267 37.1222 17.2541 38.5838 17.249 40.3583C17.2438 42.1552 18.7339 43.6291 20.5471 43.6229C22.3356 43.6168 23.8112 42.1522 23.8164 40.3797C23.8205 38.5828 22.3325 37.11 20.5172 37.1161ZM18.8923 8.30227C14.7751 12.3813 10.5879 16.5285 6.50566 20.5739C6.88847 20.9469 7.30523 21.3546 7.64996 21.69C11.7384 17.6395 15.9246 13.4932 20.0027 9.45401C19.6487 9.08606 19.2505 8.67327 18.8923 8.30125V8.30227ZM17.5772 36.3028C14.2832 33.0392 10.9182 29.7052 7.67878 26.4946C7.29083 26.8606 6.86686 27.2601 6.52213 27.5842C9.80789 30.8386 13.1729 34.1705 16.436 37.4025C16.789 37.0631 17.1913 36.6748 17.5772 36.3028ZM25.9084 3.93381C25.1809 2.5293 23.7052 1.86884 22.2049 2.22863C20.7755 2.57109 19.7372 3.87062 19.7187 5.33832C19.7022 6.67047 20.6016 8.01484 21.7109 8.29513C22.6803 6.45337 24.086 5.00809 25.9074 3.93381H25.9084ZM4.12032 26.5354C5.45603 26.5283 6.56329 25.4316 6.56843 24.1066C6.57358 22.7602 5.45191 21.6502 4.09151 21.6563C2.73316 21.6635 1.6259 22.7846 1.64339 24.1351C1.66089 25.456 2.78152 26.5426 4.11929 26.5354H4.12032ZM34.7583 10.7433C33.8167 11.681 32.9039 12.5922 31.988 13.5004C31.0773 14.4044 30.1635 15.3065 29.2436 16.2167C30.6626 17.1401 32.7526 16.872 34.0503 15.6377C35.3891 14.3647 35.7122 12.2885 34.7583 10.7433ZM30.3858 42.939C30.3858 42.0462 30.4002 41.2012 30.3807 40.3573C30.3694 39.8711 30.0174 39.5552 29.5636 39.5592C29.1365 39.5633 28.7805 39.8721 28.7579 40.3196C28.7301 40.8761 28.7383 41.4346 28.7558 41.9922C28.7589 42.0951 28.8546 42.2429 28.9482 42.2888C29.401 42.512 29.8672 42.7077 30.3858 42.938V42.939Z" fill="#353131"/>
<path d="M36.9024 6.21181C32.6864 10.3897 28.4683 14.5696 24.2512 18.7474C21.7887 16.1392 21.0632 10.7933 24.6011 7.0272C28.1143 3.28863 33.7031 3.44661 36.9014 6.21079L36.9024 6.21181Z" fill="white"/>
<path d="M9.98535 46.856C10.2632 45.1294 11.8901 43.7249 13.7362 43.6444C14.6922 43.6026 15.6513 43.624 16.6083 43.6423C16.7709 43.6454 16.9633 43.7463 17.0889 43.8594C19.149 45.7338 21.9172 45.7348 23.9774 43.8564C24.0833 43.7595 24.2305 43.6413 24.3571 43.6423C25.5518 43.6535 26.7589 43.5873 27.9361 43.7432C29.5332 43.9542 30.7969 45.2904 31.083 46.855H9.98535V46.856Z" fill="white"/>
<path d="M20.5173 37.1161C22.3315 37.11 23.8206 38.5828 23.8164 40.3797C23.8123 42.1522 22.3367 43.6158 20.5471 43.623C18.734 43.6291 17.2439 42.1553 17.249 40.3583C17.2542 38.5838 18.7268 37.1223 20.5173 37.1161Z" fill="white"/>
<path d="M18.8925 8.30228C19.2507 8.6743 19.6489 9.08709 20.0029 9.45503C15.9248 13.4943 11.7386 17.6405 7.65016 21.691C7.30543 21.3546 6.88867 20.948 6.50586 20.5749C10.5891 16.5296 14.7763 12.3813 18.8925 8.3033V8.30228Z" fill="white"/>
<path d="M17.5776 36.3028C17.1917 36.6748 16.7893 37.0621 16.4363 37.4025C13.1732 34.1705 9.80925 30.8387 6.52246 27.5842C6.86616 27.2601 7.29116 26.8606 7.67911 26.4947C10.9196 29.7053 14.2846 33.0392 17.5776 36.3028Z" fill="white"/>
<path d="M25.9087 3.93381C24.0872 5.00809 22.6805 6.45235 21.7122 8.29513C20.6029 8.01484 19.7035 6.67046 19.7199 5.33832C19.7374 3.8696 20.7768 2.57109 22.2061 2.22862C23.7065 1.86985 25.1822 2.5293 25.9097 3.93381H25.9087Z" fill="white"/>
<path d="M4.12066 26.5354C2.78186 26.5425 1.66225 25.456 1.64476 24.1351C1.62624 22.7856 2.73453 21.6634 4.09287 21.6563C5.45328 21.6492 6.57494 22.7591 6.5698 24.1066C6.56465 25.4306 5.45739 26.5283 4.12169 26.5354H4.12066Z" fill="white"/>
<path d="M30.3863 42.939C29.8676 42.7087 29.4015 42.513 28.9487 42.2898C28.8551 42.2439 28.7594 42.0961 28.7563 41.9932C28.7388 41.4356 28.7305 40.8771 28.7583 40.3206C28.781 39.8732 29.137 39.5643 29.5641 39.5603C30.0179 39.5562 30.3698 39.8721 30.3811 40.3583C30.4007 41.2022 30.3863 42.0462 30.3863 42.94V42.939Z" fill="white"/>
</svg>
