<svg width="18" height="13" viewBox="0 0 18 13" fill="none" xmlns="http://www.w3.org/2000/svg">
<path d="M1 5.75C0.585786 5.75 0.25 6.08579 0.25 6.5C0.25 6.91421 0.585786 7.25 1 7.25V5.75ZM17.5303 7.03033C17.8232 6.73744 17.8232 6.26256 17.5303 5.96967L12.7574 1.1967C12.4645 0.903806 11.9896 0.903806 11.6967 1.1967C11.4038 1.48959 11.4038 1.96447 11.6967 2.25736L15.9393 6.5L11.6967 10.7426C11.4038 11.0355 11.4038 11.5104 11.6967 11.8033C11.9896 12.0962 12.4645 12.0962 12.7574 11.8033L17.5303 7.03033ZM1 7.25H17V5.75H1V7.25Z" fill="white"/>
</svg>
