<svg width="11" height="13" viewBox="0 0 11 13" fill="none" xmlns="http://www.w3.org/2000/svg">
<path d="M0.953644 5.75C0.53943 5.75 0.203644 6.08579 0.203644 6.5C0.203644 6.91421 0.53943 7.25 0.953644 7.25L0.953644 5.75ZM10.484 7.03033C10.7769 6.73744 10.7769 6.26256 10.484 5.96967L5.711 1.1967C5.41811 0.903805 4.94324 0.903805 4.65034 1.1967C4.35745 1.48959 4.35745 1.96447 4.65034 2.25736L8.89298 6.5L4.65034 10.7426C4.35745 11.0355 4.35745 11.5104 4.65034 11.8033C4.94324 12.0962 5.41811 12.0962 5.711 11.8033L10.484 7.03033ZM0.953644 7.25L9.95364 7.25L9.95364 5.75L0.953644 5.75L0.953644 7.25Z" fill="white"/>
</svg>
