<svg width="50" height="41" viewBox="0 0 50 41" fill="none" xmlns="http://www.w3.org/2000/svg">
<path d="M49.999 25.3749V33.6061C49.3745 34.6877 48.2422 34.0764 47.3563 34.3638C47.3563 36.1331 47.337 37.8713 47.367 39.6095C47.3777 40.2272 47.2074 40.6932 46.6654 41.0011H41.5257C41.0029 40.7202 40.763 40.2993 40.8155 39.6902C40.8519 39.2747 40.8219 38.8539 40.8219 38.4353C40.8219 37.0706 40.8219 35.707 40.8219 34.3336H8.60406C8.60406 36.1288 8.58478 37.8702 8.61478 39.6105C8.62549 40.2305 8.45838 40.6976 7.90992 41.0011H3.32619C2.78201 40.6932 2.59027 40.2272 2.62669 39.6073C2.66525 38.9583 2.63526 38.3061 2.63526 37.655C2.63526 36.5475 2.63526 35.439 2.63526 34.2788C2.18428 34.2788 1.81792 34.2798 1.45157 34.2788C0.296797 34.2745 7.02797e-05 33.9849 -0.00100093 32.8495C-0.00314336 30.6884 -0.00100093 28.5262 -0.00100093 26.365C-0.00100093 24.9896 0.148969 24.8346 1.53941 24.7474C1.6251 24.742 1.70759 24.7022 1.804 24.6742C2.08037 20.9805 3.96571 18.5848 7.52321 17.4902C7.52321 17.2083 7.52321 16.9327 7.52321 16.6561C7.52321 12.4264 7.52107 8.19568 7.52321 3.96599C7.52535 1.41311 8.93186 0.00213591 11.4803 0.00105965C20.4817 -0.00109286 29.4831 -1.6608e-05 38.4856 0.00105965C41.0758 0.00105965 42.4673 1.40235 42.4684 4.01119C42.4705 8.28716 42.4759 12.5642 42.4598 16.8402C42.4576 17.318 42.5637 17.5483 43.065 17.7173C45.6542 18.588 47.2899 20.38 47.9412 23.0502C48.0719 23.5861 48.1201 24.1415 48.1694 24.4515C48.8774 24.8088 49.4388 25.0908 50.0001 25.3738L49.999 25.3749ZM16.2343 17.2922C16.2343 16.9758 16.2343 16.725 16.2343 16.4732C16.2343 13.987 16.2322 11.4998 16.2354 9.01363C16.2365 8.00626 16.5525 7.68446 17.5669 7.68338C22.5181 7.67907 27.4703 7.67907 32.4214 7.68338C33.437 7.68338 33.754 8.00626 33.7551 9.01148C33.7583 11.5213 33.7562 14.0311 33.7562 16.541C33.7562 16.7874 33.7562 17.0339 33.7562 17.2631H40.522C40.522 16.9693 40.522 16.7401 40.522 16.5108C40.522 12.3511 40.522 8.19137 40.522 4.03164C40.522 2.4743 39.996 1.95339 38.4277 1.95339C29.4735 1.95339 20.5192 1.95339 11.5638 1.95339C9.99343 1.95339 9.46853 2.47322 9.46853 4.03056C9.46746 8.1903 9.46853 12.35 9.46853 16.5098V17.2911H16.2343V17.2922ZM48.0162 26.7708H1.97967V32.2801H48.0162V26.7708ZM46.1555 24.7162C46.2048 21.6252 43.8138 19.293 40.6077 19.2876C30.1965 19.2725 19.7843 19.265 9.3732 19.3113C8.4391 19.3156 7.43644 19.5846 6.58697 19.9882C4.79268 20.8406 3.61221 23.0405 3.88644 24.7151H46.1555V24.7162ZM31.7755 15.6617V11.3147C31.7755 10.4106 31.046 9.67768 30.1462 9.67768H19.8572C18.9574 9.67768 18.2279 10.4106 18.2279 11.3147V15.6617C18.2279 16.5657 18.9574 17.2987 19.8572 17.2987H30.1462C31.046 17.2987 31.7755 16.5657 31.7755 15.6617ZM45.3671 39.0251V34.3336H42.8251V39.0251H45.3671ZM6.61589 39.0218V34.3369H4.6395V39.0218H6.61589Z" fill="#353131"/>
<path d="M48.017 26.7708V32.2802H1.98047V26.7708H48.017Z" fill="white"/>
<path d="M46.1562 24.7162H3.88716C3.61293 23.0405 4.79341 20.8417 6.58769 19.9893C7.43717 19.5857 8.43982 19.3167 9.37392 19.3124C19.7851 19.2661 30.1973 19.2736 40.6084 19.2887C43.8135 19.293 46.2055 21.6252 46.1562 24.7173V24.7162Z" fill="white"/>
<path d="M30.1652 9.67877H19.8355C18.9469 9.67877 18.2266 10.4025 18.2266 11.2953V15.6832C18.2266 16.576 18.9469 17.2997 19.8355 17.2997H30.1652C31.0539 17.2997 31.7742 16.576 31.7742 15.6832V11.2953C31.7742 10.4025 31.0539 9.67877 30.1652 9.67877Z" fill="white"/>
</svg>
