<svg width="34" height="34" viewBox="0 0 34 34" fill="none" xmlns="http://www.w3.org/2000/svg">
<path d="M28.8393 5.00893C25.7277 1.82143 21.4777 0 16.9241 0C7.66518 0 0.0758929 7.58929 0.0758929 16.8482C0.0758929 19.8839 0.910714 22.7679 2.35268 25.2723L0 34L8.87946 31.7232C11.3839 33.0134 14.1161 33.7723 16.9241 33.7723C26.2589 33.7723 34 26.183 34 16.9241C34 12.3705 32.0268 8.19643 28.8393 5.00893ZM16.9241 30.8884C14.4196 30.8884 11.9911 30.2054 9.79018 28.9152L9.33482 28.6116L4.02232 30.0536L5.46429 24.8929L5.08482 24.3616C3.71875 22.0848 2.95982 19.5045 2.95982 16.8482C2.95982 9.18304 9.25893 2.88393 17 2.88393C20.7188 2.88393 24.2098 4.32589 26.8661 6.98214C29.5223 9.63839 31.1161 13.1295 31.1161 16.9241C31.1161 24.5893 24.6652 30.8884 16.9241 30.8884ZM24.6652 20.4152C24.2098 20.1875 22.1607 19.2009 21.7812 19.0491C21.4018 18.8973 21.0982 18.8214 20.7946 19.2768C20.567 19.6562 19.7321 20.6429 19.5045 20.9464C19.2009 21.1741 18.9732 21.25 18.5938 21.0223C16.0893 19.808 14.4955 18.8214 12.8259 16.0134C12.3705 15.2545 13.2812 15.3304 14.0402 13.7366C14.192 13.433 14.1161 13.2054 14.0402 12.9777C13.9643 12.75 13.0536 10.7009 12.75 9.86607C12.3705 9.03125 12.067 9.10714 11.7634 9.10714C11.5357 9.10714 11.2321 9.10714 11.0045 9.10714C10.7009 9.10714 10.2455 9.18304 9.86607 9.63839C9.48661 10.0938 8.42411 11.0804 8.42411 13.1295C8.42411 15.2545 9.86607 17.2277 10.0938 17.5312C10.3214 17.7589 13.0536 22.0089 17.3036 23.8304C19.9598 25.0446 21.0223 25.1205 22.3884 24.8929C23.1473 24.817 24.817 23.9062 25.1964 22.9196C25.5759 21.933 25.5759 21.0982 25.4241 20.9464C25.3482 20.7188 25.0446 20.6429 24.6652 20.4152Z" fill="white"/>
</svg>
