<svg width="28" height="28" viewBox="0 0 28 28" fill="none" xmlns="http://www.w3.org/2000/svg">
<path d="M23.0156 4.13172C20.5323 1.58789 17.1406 0.134277 13.5065 0.134277C6.1173 0.134277 0.0605673 6.19101 0.0605673 13.5802C0.0605673 16.0029 0.726808 18.3045 1.87759 20.3032L0 27.2684L7.08638 25.4514C9.0851 26.4811 11.2655 27.0867 13.5065 27.0867C20.9563 27.0867 27.1342 21.03 27.1342 13.6408C27.1342 10.0068 25.5594 6.67555 23.0156 4.13172ZM13.5065 24.7852C11.5078 24.7852 9.56964 24.2401 7.81319 23.2104L7.44978 22.9682L3.21007 24.1189L4.36085 20.0004L4.05801 19.5764C2.9678 17.7594 2.36213 15.7001 2.36213 13.5802C2.36213 7.46292 7.38921 2.43584 13.5671 2.43584C16.5349 2.43584 19.321 3.58662 21.4408 5.70647C23.5607 7.82633 24.8326 10.6124 24.8326 13.6408C24.8326 19.7581 19.6844 24.7852 13.5065 24.7852ZM19.6844 16.4269C19.321 16.2452 17.6857 15.4578 17.3828 15.3367C17.08 15.2155 16.8377 15.155 16.5954 15.5184C16.4137 15.8212 15.7475 16.6086 15.5658 16.8509C15.3235 17.0326 15.1418 17.0931 14.839 16.9114C12.8403 15.9424 11.5684 15.155 10.2359 12.914C9.87248 12.3083 10.5993 12.3689 11.205 11.097C11.3261 10.8547 11.2655 10.673 11.205 10.4913C11.1444 10.3096 10.4176 8.67427 10.1753 8.00803C9.87248 7.34179 9.63021 7.40236 9.38794 7.40236C9.20623 7.40236 8.96397 7.40236 8.78226 7.40236C8.53999 7.40236 8.17659 7.46292 7.87375 7.82633C7.57092 8.18973 6.72297 8.97711 6.72297 10.6124C6.72297 12.3083 7.87375 13.8831 8.05546 14.1253C8.23716 14.307 10.4176 17.6988 13.8094 19.1524C15.9292 20.1215 16.7772 20.1821 17.8674 20.0004C18.473 19.9398 19.8055 19.213 20.1084 18.4256C20.4112 17.6382 20.4112 16.972 20.2901 16.8509C20.2295 16.6692 19.9872 16.6086 19.6844 16.4269Z" fill="#FF0000"/>
</svg>
