<svg width="39" height="35" viewBox="0 0 39 35" fill="none" xmlns="http://www.w3.org/2000/svg">
<path d="M0 0.708813C0.167159 0.245571 0.484685 -0.0022444 0.997612 1.53175e-05C3.6401 0.0128204 6.27572 0.12204 8.87623 0.634996C10.6875 0.992784 12.4293 1.54114 14.0315 2.48646C16.2641 3.80387 17.4014 5.77811 17.6822 8.2879C17.883 10.0791 17.6929 11.8244 16.9716 13.4845C16.7289 14.0426 16.3534 14.5443 16.0557 15.0806C15.9954 15.1891 15.9557 15.3676 16.0038 15.4678C17.3937 18.3286 18.2112 21.3581 18.7402 24.4743C18.7585 24.5842 18.7867 24.6927 18.8333 24.9066C18.9981 24.3816 19.1287 23.9538 19.2668 23.5274C19.9431 21.4379 20.8827 19.4735 22.1116 17.6439C22.1803 17.5414 22.1765 17.3396 22.1253 17.2175C21.0529 14.6663 20.9209 12.0865 21.8795 9.47727C22.4451 7.93689 23.5351 6.82888 24.9235 5.98224C26.7585 4.86293 28.7934 4.30929 30.8924 3.95829C33.2387 3.56585 35.6095 3.46943 37.9848 3.46491C38.639 3.46341 39.0015 3.80086 38.9992 4.42454C38.9893 7.32752 38.8519 10.22 38.1711 13.0589C37.7436 14.8403 37.104 16.5313 36.0033 18.031C34.8951 19.5405 33.3922 20.4218 31.571 20.7826C29.172 21.2587 26.8478 21.0372 24.6556 19.9074C24.1999 19.6724 23.7923 19.3447 23.3252 19.0351C23.0161 19.5722 22.6779 20.113 22.3856 20.6772C20.9941 23.3617 20.1713 26.2233 19.8202 29.2084C19.6355 30.7751 19.5889 32.3584 19.4935 33.9357C19.4538 34.5887 19.176 34.9654 18.6554 34.9978C18.2051 35.0264 17.8349 34.7522 17.7502 34.3123C17.7174 34.1413 17.7028 33.9636 17.7028 33.7888C17.696 30.8986 17.5158 28.0205 17.0655 25.1627C16.6129 22.2906 15.8717 19.4976 14.6894 16.8289C14.6291 16.6933 14.552 16.5652 14.4864 16.4395C13.8895 16.6684 13.3285 16.9343 12.7384 17.1023C10.4814 17.7448 8.23507 17.738 6.0185 16.8982C4.50948 16.3265 3.41341 15.2832 2.57456 13.9477C1.46551 12.1814 0.858695 10.2305 0.552618 8.19827C0.315236 6.62626 0.222879 5.0324 0.0633526 3.44834C0.0496135 3.31276 0.021372 3.17868 0 3.04385C0 2.26576 0 1.48691 0 0.708813ZM24.3701 17.604C24.8014 17.8947 25.1701 18.2088 25.5914 18.4175C27.2851 19.2573 29.0804 19.3989 30.9306 19.1067C32.5983 18.8438 33.9516 18.0777 34.8248 16.627C35.263 15.8994 35.6568 15.1296 35.9484 14.3342C36.8445 11.8891 37.0658 9.32662 37.1788 6.75205C37.2002 6.25491 37.1819 5.75627 37.1819 5.24406C37.1391 5.23729 37.0903 5.21996 37.0429 5.22373C35.2095 5.35554 33.3708 5.43539 31.545 5.63876C29.8139 5.83159 28.1308 6.27299 26.5676 7.06766C25.5662 7.57609 24.6434 8.193 24.0213 9.15714C23.3458 10.2034 23.0993 11.3747 23.0435 12.5919C22.9932 13.6871 23.1199 14.7635 23.5122 15.9047C23.5985 15.7819 23.642 15.705 23.6992 15.6395C25.2418 13.8905 27.0592 12.4789 29.104 11.3506C29.5788 11.0884 30.0635 10.8331 30.5688 10.6395C31.1527 10.4158 31.6755 10.7201 31.7908 11.2865C31.8747 11.6986 31.6908 11.9773 31.2305 12.2386C30.1764 12.8375 29.0979 13.4031 28.0927 14.0743C26.6875 15.0128 25.4868 16.1864 24.3701 17.604ZM13.6391 14.8411C12.6033 13.0732 11.347 11.5404 9.76393 10.2862C9.03194 9.70625 8.24881 9.19028 7.50766 8.62159C7.02985 8.25551 6.9642 7.75084 7.28936 7.33732C7.5962 6.94714 8.09768 6.91174 8.57397 7.24768C8.94569 7.50981 9.31512 7.77495 9.68989 8.03255C11.663 9.38763 13.3163 11.0485 14.6161 13.0491C14.7222 13.2126 14.8337 13.3723 14.9665 13.5689C15.0512 13.4175 15.1115 13.3226 15.1596 13.2216C16.0351 11.3792 16.1671 9.4622 15.729 7.49324C15.4176 6.09372 14.6596 4.997 13.4506 4.19556C12.1881 3.35871 10.7905 2.85404 9.32581 2.51734C6.92909 1.96597 4.48964 1.79197 2.03644 1.76184C1.95324 1.76109 1.87005 1.78444 1.77845 1.798C1.82043 3.77901 1.9189 5.7299 2.24406 7.66573C2.51273 9.26862 2.90124 10.8331 3.65384 12.2884C4.31561 13.5674 5.16743 14.6701 6.57188 15.2275C7.88396 15.748 9.251 15.8708 10.6463 15.7307C11.6874 15.626 12.6896 15.3789 13.6391 14.8403V14.8411Z" fill="#353131"/>
<path d="M24.3703 17.6039C25.487 16.1863 26.6877 15.0128 28.0929 14.0743C29.0981 13.4031 30.1766 12.8374 31.2307 12.2386C31.691 11.9772 31.8749 11.6985 31.791 11.2865C31.6757 10.7201 31.1529 10.4158 30.569 10.6395C30.0637 10.8331 29.579 11.0884 29.1042 11.3505C27.0594 12.4789 25.2412 13.8905 23.6994 15.6395C23.6422 15.7043 23.5987 15.7811 23.5124 15.9046C23.1193 14.7635 22.9934 13.6871 23.0437 12.5919C23.0995 11.3747 23.3468 10.2034 24.0215 9.15712C24.6436 8.19297 25.5664 7.57607 26.5678 7.06763C28.1318 6.27372 29.8148 5.83232 31.5452 5.63874C33.3702 5.43536 35.2097 5.35552 37.0431 5.2237C37.0905 5.21994 37.1393 5.23726 37.1821 5.24404C37.1821 5.757 37.2004 6.25564 37.179 6.75203C37.0668 9.3266 36.8454 11.8899 35.9486 14.3341C35.657 15.1288 35.2632 15.8986 34.825 16.627C33.9518 18.0777 32.5985 18.8438 30.9308 19.1067C29.0806 19.3989 27.2853 19.2565 25.5916 18.4174C25.1703 18.208 24.8016 17.8947 24.3703 17.6039Z" fill="white"/>
<path d="M13.639 14.8418C12.6895 15.3796 11.6873 15.6274 10.6462 15.7321C9.25087 15.8722 7.88383 15.7495 6.57174 15.229C5.16806 14.6716 4.31548 13.5688 3.65371 12.2898C2.90111 10.8346 2.5126 9.2701 2.24392 7.66721C1.91953 5.73139 1.8203 3.7805 1.77832 1.79948C1.86991 1.78592 1.95311 1.76257 2.03631 1.76332C4.48951 1.79345 6.92896 1.9667 9.32567 2.51882C10.7904 2.85627 12.188 3.36019 13.4505 4.19704C14.6603 4.99924 15.4174 6.0952 15.7289 7.49472C16.167 9.46369 16.0349 11.3807 15.1595 13.2231C15.1114 13.324 15.0511 13.4189 14.9663 13.5703C14.8335 13.3737 14.7221 13.2133 14.616 13.0506C13.3161 11.05 11.6621 9.38911 9.68976 8.03404C9.31499 7.77643 8.94556 7.51054 8.57384 7.24916C8.09755 6.91397 7.59683 6.94862 7.28923 7.3388C6.96407 7.75233 7.02971 8.257 7.50753 8.62307C8.24868 9.19177 9.03181 9.70773 9.7638 10.2877C11.3468 11.5411 12.6032 13.0747 13.639 14.8426V14.8418Z" fill="white"/>
</svg>
