<svg width="33" height="25" viewBox="0 0 33 25" fill="none" xmlns="http://www.w3.org/2000/svg">
<path d="M32.0028 4.60911C31.6439 3.16262 30.5073 2.01749 29.1315 1.65586C26.5593 0.932617 16.3902 0.932617 16.3902 0.932617C16.3902 0.932617 6.16129 0.932617 3.5891 1.65586C2.21328 2.01749 1.07673 3.16262 0.71782 4.60911C0 7.14047 0 12.5648 0 12.5648C0 12.5648 0 17.9289 0.71782 20.5205C1.07673 21.967 2.21328 23.0519 3.5891 23.4135C6.16129 24.0765 16.3902 24.0765 16.3902 24.0765C16.3902 24.0765 26.5593 24.0765 29.1315 23.4135C30.5073 23.0519 31.6439 21.967 32.0028 20.5205C32.7206 17.9289 32.7206 12.5648 32.7206 12.5648C32.7206 12.5648 32.7206 7.14047 32.0028 4.60911ZM13.0404 17.4467V7.68291L21.5346 12.5648L13.0404 17.4467Z" fill="#FF0000"/>
</svg>
