<svg width="41" height="29" viewBox="0 0 41 29" fill="none" xmlns="http://www.w3.org/2000/svg">
<path d="M40.1005 4.60677C39.6508 2.79427 38.2267 1.35938 36.5027 0.90625C33.2797 0 20.5375 0 20.5375 0C20.5375 0 7.72029 0 4.49726 0.90625C2.77331 1.35938 1.34918 2.79427 0.899452 4.60677C0 7.77865 0 14.5755 0 14.5755C0 14.5755 0 21.2969 0.899452 24.5443C1.34918 26.3568 2.77331 27.7161 4.49726 28.1693C7.72029 29 20.5375 29 20.5375 29C20.5375 29 33.2797 29 36.5027 28.1693C38.2267 27.7161 39.6508 26.3568 40.1005 24.5443C41 21.2969 41 14.5755 41 14.5755C41 14.5755 41 7.77865 40.1005 4.60677ZM16.34 20.6927V8.45833L26.9835 14.5755L16.34 20.6927Z" fill="white"/>
</svg>
